<svg width="287" height="31" viewBox="0 0 287 31" fill="none" xmlns="http://www.w3.org/2000/svg">
<path d="M2.61238 6.07283C1.31243 6.07283 0.439697 5.05362 0.439697 3.87573V3.86353C0.439697 2.68564 1.32464 1.65422 2.62459 1.65422C3.92454 1.65422 4.79727 2.67343 4.79727 3.85132V3.86353C4.79727 5.04141 3.91233 6.07283 2.61238 6.07283ZM2.62459 5.62731C3.60108 5.62731 4.29682 4.84612 4.29682 3.87573V3.86353C4.29682 2.89314 3.58887 2.09974 2.61238 2.09974C1.63589 2.09974 0.940147 2.88093 0.940147 3.85132V3.86353C0.940147 4.83391 1.6481 5.62731 2.62459 5.62731Z" fill="white"/>
<path d="M7.79759 6.07283C6.49764 6.07283 5.6249 5.05362 5.6249 3.87573V3.86353C5.6249 2.68564 6.50985 1.65422 7.8098 1.65422C9.10975 1.65422 9.98248 2.67343 9.98248 3.85132V3.86353C9.98248 5.04141 9.09754 6.07283 7.79759 6.07283ZM7.8098 5.62731C8.78628 5.62731 9.48203 4.84612 9.48203 3.87573V3.86353C9.48203 2.89314 8.77408 2.09974 7.79759 2.09974C6.8211 2.09974 6.12535 2.88093 6.12535 3.85132V3.86353C6.12535 4.83391 6.83331 5.62731 7.8098 5.62731Z" fill="white"/>
<path d="M12.9828 6.07283C11.6828 6.07283 10.8101 5.05362 10.8101 3.87573V3.86353C10.8101 2.68564 11.6951 1.65422 12.995 1.65422C14.295 1.65422 15.1677 2.67343 15.1677 3.85132V3.86353C15.1677 5.04141 14.2827 6.07283 12.9828 6.07283ZM12.995 5.62731C13.9715 5.62731 14.6672 4.84612 14.6672 3.87573V3.86353C14.6672 2.89314 13.9593 2.09974 12.9828 2.09974C12.0063 2.09974 11.3106 2.88093 11.3106 3.85132V3.86353C11.3106 4.83391 12.0185 5.62731 12.995 5.62731Z" fill="white"/>
<path d="M20.071 5.74327L19.064 4.44332V4.39449L20.071 3.10064L20.4066 3.29594L19.601 4.4128L20.4066 5.54797L20.071 5.74327ZM18.71 5.74327L17.703 4.44332V4.39449L18.71 3.10064L19.0518 3.29594L18.24 4.4128L19.0518 5.54797L18.71 5.74327Z" fill="white"/>
<path d="M21.0035 5.99959L22.9504 1.69694H23.402L25.3489 5.99959H24.8302L24.3297 4.87053H22.0044L21.4979 5.99959H21.0035ZM22.1936 4.43721H24.1405L23.1701 2.25842L22.1936 4.43721Z" fill="white"/>
<path d="M28.0373 1.69694L29.9415 5.99959H29.4044L27.8115 2.33776L26.2247 5.99959H25.706L27.604 1.69694H28.0373Z" fill="white"/>
<path d="M30.7806 5.99959V1.72746H31.2627V3.27153H32.3674C33.3255 3.27153 33.9786 3.74757 33.9786 4.60199V4.6142C33.9786 5.51135 33.2523 5.99959 32.3002 5.99959H30.7806ZM31.2627 5.55407H32.3185C33.0143 5.55407 33.4903 5.20009 33.4903 4.63251V4.6203C33.4903 4.02831 33.0326 3.71095 32.3491 3.71095H31.2627V5.55407Z" fill="white"/>
<path d="M34.8632 5.99959V1.72746H35.3453V3.60109H36.0411L37.8232 1.72746H38.4518L36.45 3.78419L38.5433 5.99959H37.9025L36.0594 4.03441H35.3453V5.99959H34.8632Z" fill="white"/>
<path d="M40.9591 6.07283C39.6591 6.07283 38.7864 5.05362 38.7864 3.87573V3.86353C38.7864 2.68564 39.6713 1.65422 40.9713 1.65422C42.2712 1.65422 43.144 2.67343 43.144 3.85132V3.86353C43.144 5.04141 42.259 6.07283 40.9591 6.07283ZM40.9713 5.62731C41.9478 5.62731 42.6435 4.84612 42.6435 3.87573V3.86353C42.6435 2.89314 41.9356 2.09974 40.9591 2.09974C39.9826 2.09974 39.2868 2.88093 39.2868 3.85132V3.86353C39.2868 4.83391 39.9948 5.62731 40.9713 5.62731Z" fill="white"/>
<path d="M44.1608 5.99959V1.72746H45.7598C46.7241 1.72746 47.3588 2.24011 47.3588 3.08234V3.09454C47.3588 4.0161 46.5898 4.49214 45.6805 4.49214H44.6429V5.99959H44.1608ZM44.6429 4.05272H45.6988C46.4067 4.05272 46.8705 3.67433 46.8705 3.11285V3.10064C46.8705 2.49034 46.4128 2.17298 45.7232 2.17298H44.6429V4.05272Z" fill="white"/>
<path d="M53.6802 5.99959H53.198V2.47813L50.4639 5.99959H50.0672V1.72746H50.5493V5.16958L53.2224 1.72746H53.6802V5.99959Z" fill="white"/>
<path d="M56.7185 5.99959V1.72746H57.2007V3.60109H57.8964L59.6785 1.72746H60.3071L58.3053 3.78419L60.3987 5.99959H59.7579L57.9147 4.03441H57.2007V5.99959H56.7185Z" fill="white"/>
<path d="M62.8144 6.07283C61.5145 6.07283 60.6417 5.05362 60.6417 3.87573V3.86353C60.6417 2.68564 61.5267 1.65422 62.8266 1.65422C64.1266 1.65422 64.9993 2.67343 64.9993 3.85132V3.86353C64.9993 5.04141 64.1144 6.07283 62.8144 6.07283ZM62.8266 5.62731C63.8031 5.62731 64.4989 4.84612 64.4989 3.87573V3.86353C64.4989 2.89314 63.7909 2.09974 62.8144 2.09974C61.8379 2.09974 61.1422 2.88093 61.1422 3.85132V3.86353C61.1422 4.83391 61.8501 5.62731 62.8266 5.62731Z" fill="white"/>
<path d="M67.4687 5.74327L67.1269 5.54797L67.9386 4.42501L67.1269 3.29594L67.4687 3.10064L68.4757 4.39449V4.44332L67.4687 5.74327ZM66.1138 5.74327L65.772 5.54797L66.5776 4.42501L65.772 3.29594L66.1138 3.10064L67.1147 4.39449V4.44332L66.1138 5.74327Z" fill="white"/>
<path d="M69.1214 6.74416L69.0482 6.53056C69.3594 6.4146 69.4815 6.26202 69.4571 5.99959H69.2374V5.35877H69.7988V5.90805C69.7988 6.40239 69.5852 6.64041 69.1214 6.74416Z" fill="white"/>
<path d="M74.6808 6.07283C73.3809 6.07283 72.5081 5.05362 72.5081 3.87573V3.86353C72.5081 2.68564 73.3931 1.65422 74.693 1.65422C75.993 1.65422 76.8657 2.67343 76.8657 3.85132V3.86353C76.8657 5.04141 75.9808 6.07283 74.6808 6.07283ZM74.693 5.62731C75.6695 5.62731 76.3652 4.84612 76.3652 3.87573V3.86353C76.3652 2.89314 75.6573 2.09974 74.6808 2.09974C73.7043 2.09974 73.0086 2.88093 73.0086 3.85132V3.86353C73.0086 4.83391 73.7165 5.62731 74.693 5.62731Z" fill="white"/>
<path d="M77.8825 5.99959V1.72746H80.7693V2.17298H78.3647V5.99959H77.8825Z" fill="white"/>
<path d="M81.6373 5.99959V1.72746H83.2363C84.2006 1.72746 84.8353 2.24011 84.8353 3.08234V3.09454C84.8353 4.0161 84.0663 4.49214 83.157 4.49214H82.1195V5.99959H81.6373ZM82.1195 4.05272H83.1753C83.8833 4.05272 84.3471 3.67433 84.3471 3.11285V3.10064C84.3471 2.49034 83.8894 2.17298 83.1997 2.17298H82.1195V4.05272Z" fill="white"/>
<path d="M85.714 5.99959V1.72746H86.1961V3.62551H88.6618V1.72746H89.1439V5.99959H88.6618V4.07713H86.1961V5.99959H85.714Z" fill="white"/>
<path d="M92.6688 5.99959V2.19739L91.8632 2.44762L91.7473 2.05702L92.7909 1.69694H93.1449V5.99959H92.6688Z" fill="white"/>
<path d="M95.9425 6.07283C94.8378 6.07283 94.1421 5.07193 94.1421 3.87573V3.86353C94.1421 2.66733 94.8561 1.65422 95.9547 1.65422C97.0532 1.65422 97.749 2.65512 97.749 3.85132V3.86353C97.749 5.05972 97.041 6.07283 95.9425 6.07283ZM95.9547 5.63341C96.7603 5.63341 97.2485 4.8095 97.2485 3.87573V3.86353C97.2485 2.93586 96.742 2.09364 95.9425 2.09364C95.143 2.09364 94.6425 2.91145 94.6425 3.85132V3.86353C94.6425 4.79119 95.1491 5.63341 95.9547 5.63341Z" fill="white"/>
<path d="M98.3598 5.99959V5.62731L99.91 4.26022C100.563 3.67433 100.801 3.34477 100.801 2.91755C100.801 2.4171 100.404 2.09974 99.9405 2.09974C99.4522 2.09974 99.1349 2.34997 98.7931 2.83211L98.4391 2.57578C98.8358 2.0021 99.2203 1.66643 99.9771 1.66643C100.746 1.66643 101.301 2.17908 101.301 2.87483V2.88704C101.301 3.50955 100.972 3.89404 100.221 4.54707L99.0799 5.56017H101.344V5.99959H98.3598Z" fill="white"/>
<path d="M102.485 5.99959L104.413 2.16688H102.064V1.72746H104.963V2.08754L103.022 5.99959H102.485Z" fill="white"/>
<path d="M106.121 5.99959L108.049 2.16688H105.699V1.72746H108.598V2.08754L106.658 5.99959H106.121Z" fill="white"/>
<path d="M110.699 6.07283C109.985 6.07283 109.454 5.76768 109.106 5.30995L109.454 4.99869C109.79 5.4076 110.174 5.63341 110.705 5.63341C111.224 5.63341 111.639 5.30995 111.639 4.8034V4.79119C111.639 4.26022 111.144 3.96728 110.443 3.96728H110.168L110.07 3.68043L111.419 2.16078H109.332V1.72746H112.06V2.08144L110.717 3.57058C111.462 3.63771 112.127 3.98559 112.127 4.77288V4.78509C112.127 5.54797 111.492 6.07283 110.699 6.07283Z" fill="white"/>
<path d="M114.326 5.63341C115.15 5.63341 115.596 4.77288 115.596 3.85132V3.76588C115.327 4.18088 114.943 4.44332 114.388 4.44332C113.509 4.44332 112.898 3.88794 112.898 3.11895V3.10675C112.898 2.29504 113.527 1.65422 114.436 1.65422C114.925 1.65422 115.285 1.819 115.559 2.09364C115.883 2.4171 116.09 2.89314 116.09 3.74757V3.75977C116.09 5.11465 115.37 6.07283 114.314 6.07283C113.753 6.07283 113.362 5.84702 112.996 5.54797L113.277 5.17568C113.625 5.48694 113.942 5.63341 114.326 5.63341ZM114.442 4.02831C115.102 4.02831 115.504 3.55227 115.504 3.06403V3.05182C115.504 2.51475 115.059 2.08144 114.418 2.08144C113.777 2.08144 113.393 2.55137 113.393 3.08234V3.09454C113.393 3.63771 113.82 4.02831 114.442 4.02831Z" fill="white"/>
<path d="M119.102 5.99959V4.98649H116.85L116.728 4.63861L119.145 1.69694H119.566V4.58369H120.231V4.98649H119.566V5.99959H119.102ZM117.308 4.58369H119.102V2.38048L117.308 4.58369Z" fill="white"/>
<path d="M122.313 5.63341C123.137 5.63341 123.582 4.77288 123.582 3.85132V3.76588C123.314 4.18088 122.929 4.44332 122.374 4.44332C121.495 4.44332 120.885 3.88794 120.885 3.11895V3.10675C120.885 2.29504 121.513 1.65422 122.423 1.65422C122.911 1.65422 123.271 1.819 123.546 2.09364C123.869 2.4171 124.077 2.89314 124.077 3.74757V3.75977C124.077 5.11465 123.357 6.07283 122.301 6.07283C121.739 6.07283 121.349 5.84702 120.982 5.54797L121.263 5.17568C121.611 5.48694 121.928 5.63341 122.313 5.63341ZM122.429 4.02831C123.088 4.02831 123.491 3.55227 123.491 3.06403V3.05182C123.491 2.51475 123.045 2.08144 122.404 2.08144C121.764 2.08144 121.379 2.55137 121.379 3.08234V3.09454C121.379 3.63771 121.806 4.02831 122.429 4.02831Z" fill="white"/>
<path d="M126.374 6.06062C125.465 6.06062 124.769 5.56628 124.769 4.85222V4.84001C124.769 4.32736 125.135 3.97948 125.648 3.79029C125.251 3.6072 124.916 3.30205 124.916 2.8077V2.79549C124.916 2.13636 125.593 1.66643 126.374 1.66643C127.155 1.66643 127.833 2.13636 127.833 2.79549V2.8077C127.833 3.30205 127.497 3.6072 127.101 3.79029C127.607 3.97948 127.979 4.32736 127.979 4.83391V4.84612C127.979 5.57238 127.284 6.06062 126.374 6.06062ZM126.374 3.6194C126.917 3.6194 127.351 3.30205 127.351 2.83821V2.82601C127.351 2.4049 126.936 2.08754 126.374 2.08754C125.813 2.08754 125.398 2.39879 125.398 2.82601V2.83821C125.398 3.30205 125.831 3.6194 126.374 3.6194ZM126.374 5.63951C127.076 5.63951 127.491 5.27333 127.491 4.84001V4.82781C127.491 4.35787 126.991 4.0161 126.374 4.0161C125.752 4.0161 125.257 4.35787 125.257 4.82781V4.84001C125.257 5.27333 125.672 5.63951 126.374 5.63951Z" fill="white"/>
<path d="M130.194 6.07283C129.48 6.07283 128.949 5.76768 128.601 5.30995L128.949 4.99869C129.285 5.4076 129.669 5.63341 130.2 5.63341C130.719 5.63341 131.134 5.30995 131.134 4.8034V4.79119C131.134 4.26022 130.64 3.96728 129.938 3.96728H129.663L129.565 3.68043L130.914 2.16078H128.827V1.72746H131.555V2.08144L130.212 3.57058C130.957 3.63771 131.622 3.98559 131.622 4.77288V4.78509C131.622 5.54797 130.987 6.07283 130.194 6.07283Z" fill="white"/>
<path d="M132.332 5.99959V5.62731L133.882 4.26022C134.535 3.67433 134.773 3.34477 134.773 2.91755C134.773 2.4171 134.376 2.09974 133.913 2.09974C133.424 2.09974 133.107 2.34997 132.765 2.83211L132.411 2.57578C132.808 2.0021 133.192 1.66643 133.949 1.66643C134.718 1.66643 135.273 2.17908 135.273 2.87483V2.88704C135.273 3.50955 134.944 3.89404 134.193 4.54707L133.052 5.56017H135.316V5.99959H132.332Z" fill="white"/>
<path d="M138.168 5.99959V4.98649H135.916L135.794 4.63861L138.211 1.69694H138.632V4.58369H139.297V4.98649H138.632V5.99959H138.168ZM136.374 4.58369H138.168V2.38048L136.374 4.58369Z" fill="white"/>
<path d="M140.09 5.99959V5.35877H140.651V5.99959H140.09Z" fill="white"/>
<path d="M143.55 5.99959V1.72746H146.437V2.17298H144.032V5.99959H143.55Z" fill="white"/>
<path d="M146.348 5.99959V5.35877H146.909V5.99959H146.348Z" fill="white"/>
<path d="M149.808 5.99959V1.72746H150.296L151.852 4.05882L153.409 1.72746H153.897V5.99959H153.415V2.53916L151.859 4.82781H151.834L150.278 2.54527V5.99959H149.808Z" fill="white"/>
<path d="M157.09 6.07283C155.79 6.07283 154.917 5.05362 154.917 3.87573V3.86353C154.917 2.68564 155.802 1.65422 157.102 1.65422C158.402 1.65422 159.275 2.67343 159.275 3.85132V3.86353C159.275 5.04141 158.39 6.07283 157.09 6.07283ZM157.102 5.62731C158.079 5.62731 158.774 4.84612 158.774 3.87573V3.86353C158.774 2.89314 158.066 2.09974 157.09 2.09974C156.113 2.09974 155.418 2.88093 155.418 3.85132V3.86353C155.418 4.83391 156.126 5.62731 157.102 5.62731Z" fill="white"/>
<path d="M162.245 6.07283C161.012 6.07283 160.102 5.10244 160.102 3.87573V3.86353C160.102 2.65512 161.012 1.65422 162.263 1.65422C163.038 1.65422 163.508 1.92276 163.929 2.33166L163.599 2.68564C163.233 2.34387 162.843 2.09974 162.257 2.09974C161.311 2.09974 160.603 2.86873 160.603 3.85132V3.86353C160.603 4.85222 161.311 5.62731 162.257 5.62731C162.843 5.62731 163.227 5.40149 163.636 5.0109L163.953 5.32215C163.514 5.77378 163.014 6.07283 162.245 6.07283Z" fill="white"/>
<path d="M164.821 5.99959V1.72746H165.303V3.60109H165.999L167.781 1.72746H168.41L166.408 3.78419L168.501 5.99959H167.86L166.017 4.03441H165.303V5.99959H164.821Z" fill="white"/>
<path d="M169.226 5.99959V1.72746H171.044C171.533 1.72746 171.917 1.86783 172.161 2.10585C172.344 2.29504 172.436 2.52696 172.436 2.78939V2.8016C172.436 3.35697 172.094 3.64382 171.758 3.79029C172.265 3.93676 172.674 4.24192 172.674 4.8217V4.83391C172.674 5.56628 172.057 5.99959 171.124 5.99959H169.226ZM171.948 2.86873V2.85652C171.948 2.43541 171.612 2.16078 171.002 2.16078H169.702V3.63161H170.965C171.551 3.63161 171.948 3.37528 171.948 2.86873ZM172.186 4.8034V4.79119C172.186 4.32736 171.801 4.05882 171.05 4.05882H169.702V5.56628H171.136C171.789 5.56628 172.186 5.28554 172.186 4.8034Z" fill="white"/>
<path d="M173.198 5.99959L175.145 1.69694H175.597L177.544 5.99959H177.025L176.524 4.87053H174.199L173.693 5.99959H173.198ZM174.388 4.43721H176.335L175.365 2.25842L174.388 4.43721Z" fill="white"/>
<path d="M178.136 6.74416L178.063 6.53056C178.374 6.4146 178.496 6.26202 178.472 5.99959H178.252V5.35877H178.813V5.90805C178.813 6.40239 178.6 6.64041 178.136 6.74416Z" fill="white"/>
<path d="M182.2 5.99959V2.19739L181.394 2.44762L181.279 2.05702L182.322 1.69694H182.676V5.99959H182.2Z" fill="white"/>
<path d="M184.387 5.99959V2.19739L183.582 2.44762L183.466 2.05702L184.509 1.69694H184.863V5.99959H184.387Z" fill="white"/>
<path d="M187.295 5.63341C188.119 5.63341 188.564 4.77288 188.564 3.85132V3.76588C188.296 4.18088 187.911 4.44332 187.356 4.44332C186.477 4.44332 185.867 3.88794 185.867 3.11895V3.10675C185.867 2.29504 186.495 1.65422 187.405 1.65422C187.893 1.65422 188.253 1.819 188.528 2.09364C188.851 2.4171 189.059 2.89314 189.059 3.74757V3.75977C189.059 5.11465 188.338 6.07283 187.283 6.07283C186.721 6.07283 186.331 5.84702 185.964 5.54797L186.245 5.17568C186.593 5.48694 186.91 5.63341 187.295 5.63341ZM187.411 4.02831C188.07 4.02831 188.473 3.55227 188.473 3.06403V3.05182C188.473 2.51475 188.027 2.08144 187.386 2.08144C186.746 2.08144 186.361 2.55137 186.361 3.08234V3.09454C186.361 3.63771 186.788 4.02831 187.411 4.02831Z" fill="white"/>
<path d="M189.667 5.99959V5.62731L191.217 4.26022C191.87 3.67433 192.108 3.34477 192.108 2.91755C192.108 2.4171 191.712 2.09974 191.248 2.09974C190.76 2.09974 190.442 2.34997 190.1 2.83211L189.746 2.57578C190.143 2.0021 190.528 1.66643 191.284 1.66643C192.053 1.66643 192.609 2.17908 192.609 2.87483V2.88704C192.609 3.50955 192.279 3.89404 191.529 4.54707L190.387 5.56017H192.652V5.99959H189.667Z" fill="white"/>
<path d="M195.06 6.07283C194.59 6.07283 194.206 5.90805 193.937 5.63951C193.595 5.29774 193.4 4.85832 193.4 3.98559V3.97338C193.4 2.67343 194.053 1.65422 195.176 1.65422C195.689 1.65422 196.067 1.83121 196.439 2.14247L196.159 2.51475C195.841 2.24622 195.542 2.09364 195.152 2.09364C194.321 2.09364 193.894 2.96027 193.894 3.92456V3.98559C194.181 3.57058 194.553 3.32646 195.115 3.32646C195.914 3.32646 196.592 3.83301 196.592 4.63861V4.65082C196.592 5.47473 195.92 6.07283 195.06 6.07283ZM195.066 5.64562C195.695 5.64562 196.097 5.2123 196.097 4.66913V4.65692C196.097 4.13816 195.67 3.74147 195.054 3.74147C194.413 3.74147 193.986 4.2053 193.986 4.67523V4.68744C193.986 5.23061 194.431 5.64562 195.066 5.64562Z" fill="white"/>
<path d="M197.97 5.99959V2.19739L197.165 2.44762L197.049 2.05702L198.092 1.69694H198.446V5.99959H197.97Z" fill="white"/>
<path d="M199.419 6.74416L199.346 6.53056C199.657 6.4146 199.779 6.26202 199.755 5.99959H199.535V5.35877H200.097V5.90805C200.097 6.40239 199.883 6.64041 199.419 6.74416Z" fill="white"/>
<path d="M204.96 1.69694L206.864 5.99959H206.327L204.734 2.33776L203.148 5.99959H202.629L204.527 1.69694H204.96Z" fill="white"/>
<path d="M207.703 5.99959V1.72746H210.792V2.16688H208.186V3.62551H210.517V4.06493H208.186V5.56017H210.822V5.99959H207.703Z" fill="white"/>
<path d="M211.792 5.99959V1.72746H212.274V3.62551H214.74V1.72746H215.222V5.99959H214.74V4.07713H212.274V5.99959H211.792Z" fill="white"/>
<path d="M220.042 5.99959H219.56V2.47813L216.826 5.99959H216.429V1.72746H216.911V5.16958L219.584 1.72746H220.042V5.99959Z" fill="white"/>
<path d="M221.251 5.99959V1.72746H221.733V3.62551H224.198V1.72746H224.68V5.99959H224.198V4.07713H221.733V5.99959H221.251Z" fill="white"/>
<path d="M227.84 6.07283C226.608 6.07283 225.698 5.10244 225.698 3.87573V3.86353C225.698 2.65512 226.608 1.65422 227.859 1.65422C228.634 1.65422 229.104 1.92276 229.525 2.33166L229.195 2.68564C228.829 2.34387 228.438 2.09974 227.853 2.09974C226.907 2.09974 226.199 2.86873 226.199 3.85132V3.86353C226.199 4.85222 226.907 5.62731 227.853 5.62731C228.438 5.62731 228.823 5.40149 229.232 5.0109L229.549 5.32215C229.11 5.77378 228.609 6.07283 227.84 6.07283Z" fill="white"/>
<path d="M230.417 5.99959V1.72746H230.899V3.60109H231.595L233.377 1.72746H234.006L232.004 3.78419L234.097 5.99959H233.456L231.613 4.03441H230.899V5.99959H230.417Z" fill="white"/>
<path d="M238.434 5.99959H237.952V2.47813L235.218 5.99959H234.821V1.72746H235.304V5.16958L237.977 1.72746H238.434V5.99959Z" fill="white"/>
<path d="M241.45 1.37348C240.937 1.37348 240.589 1.11715 240.546 0.677734H240.913C240.98 0.873032 241.151 0.995093 241.45 0.995093C241.749 0.995093 241.92 0.873032 241.987 0.677734H242.353C242.31 1.11715 241.962 1.37348 241.45 1.37348ZM243.256 5.99959H242.774V2.47813L240.04 5.99959H239.643V1.72746H240.125V5.16958L242.798 1.72746H243.256V5.99959Z" fill="white"/>
<path d="M246.294 5.99959V1.72746H249.718V5.99959H249.236V2.17298H246.777V5.99959H246.294Z" fill="white"/>
<path d="M250.925 5.99959V1.72746H252.524C253.489 1.72746 254.123 2.24011 254.123 3.08234V3.09454C254.123 4.0161 253.354 4.49214 252.445 4.49214H251.408V5.99959H250.925ZM251.408 4.05272H252.463C253.171 4.05272 253.635 3.67433 253.635 3.11285V3.10064C253.635 2.49034 253.177 2.17298 252.488 2.17298H251.408V4.05272Z" fill="white"/>
<path d="M254.795 4.4128V3.91845H256.491V4.4128H254.795Z" fill="white"/>
<path d="M258.08 5.99959V2.17298H256.639V1.72746H260.002V2.17298H258.562V5.99959H258.08Z" fill="white"/>
<path d="M260.044 6.74416L259.971 6.53056C260.282 6.4146 260.404 6.26202 260.38 5.99959H260.16V5.35877H260.722V5.90805C260.722 6.40239 260.508 6.64041 260.044 6.74416Z" fill="white"/>
<path d="M263.242 5.55407H263.651L265.347 1.69694H265.854L267.551 5.55407H267.96V6.89064H267.496V5.99959H263.706V6.89064H263.242V5.55407ZM265.598 2.24622L264.157 5.56628H267.026L265.598 2.24622Z" fill="white"/>
<path d="M268.796 5.99959V5.35877H269.358V5.99959H268.796Z" fill="white"/>
<path d="M272.488 5.99959L274.417 2.16688H272.067V1.72746H274.966V2.08754L273.025 5.99959H272.488Z" fill="white"/>
<path d="M275.491 5.99959V5.62731L277.041 4.26022C277.694 3.67433 277.932 3.34477 277.932 2.91755C277.932 2.4171 277.536 2.09974 277.072 2.09974C276.584 2.09974 276.266 2.34997 275.925 2.83211L275.571 2.57578C275.967 2.0021 276.352 1.66643 277.109 1.66643C277.878 1.66643 278.433 2.17908 278.433 2.87483V2.88704C278.433 3.50955 278.103 3.89404 277.353 4.54707L276.211 5.56017H278.476V5.99959H275.491Z" fill="white"/>
<path d="M278.724 6.78078L281.555 1.12936H281.989L279.157 6.78078H278.724Z" fill="white"/>
<path d="M282.125 5.99959V5.62731L283.675 4.26022C284.328 3.67433 284.566 3.34477 284.566 2.91755C284.566 2.4171 284.169 2.09974 283.705 2.09974C283.217 2.09974 282.9 2.34997 282.558 2.83211L282.204 2.57578C282.601 2.0021 282.985 1.66643 283.742 1.66643C284.511 1.66643 285.066 2.17908 285.066 2.87483V2.88704C285.066 3.50955 284.737 3.89404 283.986 4.54707L282.845 5.56017H285.109V5.99959H282.125Z" fill="white"/>
<path d="M285.949 5.99959V5.35877H286.511V5.99959H285.949Z" fill="white"/>
<path d="M2.5728 9.57668L2.63383 8.8138L2.00522 9.25932L1.84044 8.97248L2.54839 8.64902L1.84044 8.31945L2.00522 8.03871L2.63383 8.47813L2.5728 7.71525H2.89016L2.82913 8.47813L3.45775 8.03871L3.62253 8.31945L2.91457 8.64902L3.62253 8.97248L3.45775 9.25932L2.82913 8.8138L2.89016 9.57668H2.5728Z" fill="white"/>
<path d="M3.67183 11.9996L5.6187 7.69694H6.07033L8.0172 11.9996H7.49844L6.99799 10.8705H4.67273L4.16618 11.9996H3.67183ZM4.86192 10.4372H6.8088L5.83841 8.25842L4.86192 10.4372Z" fill="white"/>
<path d="M8.85966 11.9996V7.72746H9.3418V9.6011H10.0375L11.8196 7.72746H12.4483L10.4465 9.78419L12.5398 11.9996H11.899L10.0559 10.0344H9.3418V11.9996H8.85966Z" fill="white"/>
<path d="M16.6635 12.8906V11.9996H13.2641V7.72746H13.7462V11.5541H16.2058V7.72746H16.6879V11.5541H17.1273V12.8906H16.6635Z" fill="white"/>
<path d="M21.6034 11.9996H21.1213V8.47813L18.3871 11.9996H17.9904V7.72746H18.4725V11.1696L21.1457 7.72746H21.6034V11.9996Z" fill="white"/>
<path d="M26.0161 7.72746V11.9996H25.534V10.3396H24.3561L23.0745 11.9996H22.4825L23.819 10.2846C23.1355 10.1687 22.635 9.72926 22.635 9.02131V9.0152C22.635 8.2157 23.2576 7.72746 24.2463 7.72746H26.0161ZM25.534 8.17298H24.2096C23.52 8.17298 23.1233 8.50255 23.1233 9.02131V9.02741C23.1233 9.6133 23.6115 9.90625 24.2768 9.90625H25.534V8.17298Z" fill="white"/>
<path d="M29.0522 11.9996V7.72746H32.476V11.9996H31.9938V8.17298H29.5343V11.9996H29.0522Z" fill="white"/>
<path d="M33.6831 11.9996V7.72746H35.2821C36.2464 7.72746 36.8811 8.24011 36.8811 9.08234V9.09454C36.8811 10.0161 36.1121 10.4921 35.2028 10.4921H34.1652V11.9996H33.6831ZM34.1652 10.0527H35.2211C35.929 10.0527 36.3929 9.67433 36.3929 9.11285V9.10065C36.3929 8.49034 35.9351 8.17298 35.2455 8.17298H34.1652V10.0527Z" fill="white"/>
<path d="M39.7432 12.0728C38.4433 12.0728 37.5705 11.0536 37.5705 9.87573V9.86353C37.5705 8.68564 38.4555 7.65422 39.7554 7.65422C41.0554 7.65422 41.9281 8.67343 41.9281 9.85132V9.86353C41.9281 11.0414 41.0432 12.0728 39.7432 12.0728ZM39.7554 11.6273C40.7319 11.6273 41.4277 10.8461 41.4277 9.87573V9.86353C41.4277 8.89314 40.7197 8.09974 39.7432 8.09974C38.7667 8.09974 38.071 8.88094 38.071 9.85132V9.86353C38.071 10.8339 38.779 11.6273 39.7554 11.6273Z" fill="white"/>
<path d="M45.5582 7.72746H46.1197L44.5451 9.8208L46.1808 11.9996H45.6071L44.24 10.1565L42.8729 11.9996H42.3175L43.9531 9.8208L42.3786 7.72746H42.9461L44.2522 9.48514L45.5582 7.72746Z" fill="white"/>
<path d="M48.7428 12.0728C47.4429 12.0728 46.5702 11.0536 46.5702 9.87573V9.86353C46.5702 8.68564 47.4551 7.65422 48.7551 7.65422C50.055 7.65422 50.9277 8.67343 50.9277 9.85132V9.86353C50.9277 11.0414 50.0428 12.0728 48.7428 12.0728ZM48.7551 11.6273C49.7315 11.6273 50.4273 10.8461 50.4273 9.87573V9.86353C50.4273 8.89314 49.7193 8.09974 48.7428 8.09974C47.7664 8.09974 47.0706 8.88094 47.0706 9.85132V9.86353C47.0706 10.8339 47.7786 11.6273 48.7551 11.6273Z" fill="white"/>
<path d="M51.2861 11.5541H51.695L53.3916 7.69694H53.8982L55.5948 11.5541H56.0037V12.8906H55.5399V11.9996H51.7499V12.8906H51.2861V11.5541ZM53.6418 8.24622L52.2015 11.5663H55.0699L53.6418 8.24622Z" fill="white"/>
<path d="M60.4448 11.9996H59.9626V8.47813L57.2285 11.9996H56.8318V7.72746H57.3139V11.1696L59.987 7.72746H60.4448V11.9996Z" fill="white"/>
<path d="M62.7642 11.9996V8.17298H61.3238V7.72746H64.6866V8.17298H63.2463V11.9996H62.7642Z" fill="white"/>
<path d="M67.3929 11.9996V7.72746H67.875V9.62551H70.3407V7.72746H70.8228V11.9996H70.3407V10.0771H67.875V11.9996H67.3929Z" fill="white"/>
<path d="M71.6636 11.9996L73.6105 7.69694H74.0621L76.009 11.9996H75.4902L74.9898 10.8705H72.6645L72.158 11.9996H71.6636ZM72.8537 10.4372H74.8006L73.8302 8.25842L72.8537 10.4372Z" fill="white"/>
<path d="M78.6812 11.9996V7.72746H79.1633V11.5541H81.5679V11.9996H78.6812Z" fill="white"/>
<path d="M82.436 11.9996V7.72746H85.5241V8.16688H82.9181V9.62551H85.2495V10.0649H82.9181V11.5602H85.5546V11.9996H82.436Z" fill="white"/>
<path d="M87.6115 11.9996V8.17298H86.1711V7.72746H89.5339V8.17298H88.0936V11.9996H87.6115Z" fill="white"/>
<path d="M92.1193 12.0667C91.0635 12.0667 90.3433 11.4198 90.3433 10.2114V7.72746H90.8255V10.1809C90.8255 11.1085 91.3076 11.6212 92.1315 11.6212C92.9188 11.6212 93.4193 11.1452 93.4193 10.2114V7.72746H93.9014V10.1748C93.9014 11.4259 93.1873 12.0667 92.1193 12.0667Z" fill="white"/>
<path d="M94.8116 11.9996V11.3588H95.3731V11.9996H94.8116Z" fill="white"/>
<path d="M96.442 11.9996V7.72746H98.279C98.81 7.72746 99.225 7.88614 99.4935 8.15467C99.7071 8.36828 99.8231 8.65512 99.8231 8.99689V9.0091C99.8231 9.71705 99.3348 10.1382 98.6635 10.2541L99.9757 11.9996H99.3837L98.1447 10.3396H96.9241V11.9996H96.442ZM96.9241 9.90625H98.2363C98.871 9.90625 99.3348 9.57668 99.3348 9.02741V9.0152C99.3348 8.48424 98.932 8.17298 98.2424 8.17298H96.9241V9.90625Z" fill="white"/>
<path d="M102.561 12.0667C101.505 12.0667 100.785 11.4198 100.785 10.2114V7.72746H101.267V10.1809C101.267 11.1085 101.75 11.6212 102.573 11.6212C103.361 11.6212 103.861 11.1452 103.861 10.2114V7.72746H104.343V10.1748C104.343 11.4259 103.629 12.0667 102.561 12.0667Z" fill="white"/>
<path d="M110.926 11.9996H110.444V8.47813L107.71 11.9996H107.313V7.72746H107.795V11.1696L110.468 7.72746H110.926V11.9996Z" fill="white"/>
<path d="M113.964 11.9996V7.72746H115.783C116.271 7.72746 116.656 7.86783 116.9 8.10585C117.083 8.29504 117.175 8.52696 117.175 8.78939V8.8016C117.175 9.35697 116.833 9.64382 116.497 9.79029C117.004 9.93676 117.413 10.2419 117.413 10.8217V10.8339C117.413 11.5663 116.796 11.9996 115.862 11.9996H113.964ZM116.686 8.86873V8.85652C116.686 8.43541 116.351 8.16078 115.74 8.16078H114.44V9.63161H115.704C116.29 9.63161 116.686 9.37528 116.686 8.86873ZM116.924 10.8034V10.7912C116.924 10.3274 116.54 10.0588 115.789 10.0588H114.44V11.5663H115.875C116.528 11.5663 116.924 11.2855 116.924 10.8034Z" fill="white"/>
<path d="M120.329 12.0728C119.029 12.0728 118.156 11.0536 118.156 9.87573V9.86353C118.156 8.68564 119.041 7.65422 120.341 7.65422C121.641 7.65422 122.513 8.67343 122.513 9.85132V9.86353C122.513 11.0414 121.628 12.0728 120.329 12.0728ZM120.341 11.6273C121.317 11.6273 122.013 10.8461 122.013 9.87573V9.86353C122.013 8.89314 121.305 8.09974 120.329 8.09974C119.352 8.09974 118.656 8.88094 118.656 9.85132V9.86353C118.656 10.8339 119.364 11.6273 120.341 11.6273Z" fill="white"/>
<path d="M125.36 11.9996V7.72746H127.179C127.667 7.72746 128.051 7.86783 128.296 8.10585C128.479 8.29504 128.57 8.52696 128.57 8.78939V8.8016C128.57 9.35697 128.228 9.64382 127.893 9.79029C128.399 9.93676 128.808 10.2419 128.808 10.8217V10.8339C128.808 11.5663 128.192 11.9996 127.258 11.9996H125.36ZM128.082 8.86873V8.85652C128.082 8.43541 127.746 8.16078 127.136 8.16078H125.836V9.63161H127.099C127.685 9.63161 128.082 9.37528 128.082 8.86873ZM128.32 10.8034V10.7912C128.32 10.3274 127.935 10.0588 127.185 10.0588H125.836V11.5663H127.27C127.923 11.5663 128.32 11.2855 128.32 10.8034Z" fill="white"/>
<path d="M131.717 12.0728C130.485 12.0728 129.575 11.1024 129.575 9.87573V9.86353C129.575 8.65512 130.485 7.65422 131.736 7.65422C132.511 7.65422 132.981 7.92276 133.402 8.33166L133.072 8.68564C132.706 8.34387 132.315 8.09974 131.73 8.09974C130.784 8.09974 130.076 8.86873 130.076 9.85132V9.86353C130.076 10.8522 130.784 11.6273 131.73 11.6273C132.315 11.6273 132.7 11.4015 133.109 11.0109L133.426 11.3222C132.987 11.7738 132.486 12.0728 131.717 12.0728Z" fill="white"/>
<path d="M134.294 11.9996V7.72746H137.382V8.16688H134.776V9.62551H137.108V10.0649H134.776V11.5602H137.413V11.9996H134.294Z" fill="white"/>
<path d="M141.3 7.72746H141.861L140.287 9.8208L141.922 11.9996H141.349L139.982 10.1565L138.614 11.9996H138.059L139.695 9.8208L138.12 7.72746H138.688L139.994 9.48514L141.3 7.72746Z" fill="white"/>
<path d="M144.635 11.9996V7.72746H145.123L146.679 10.0588L148.235 7.72746H148.724V11.9996H148.242V8.53916L146.685 10.8278H146.661L145.105 8.54527V11.9996H144.635Z" fill="white"/>
<path d="M149.567 11.9996L151.514 7.69694H151.965L153.912 11.9996H153.393L152.893 10.8705H150.568L150.061 11.9996H149.567ZM150.757 10.4372H152.704L151.733 8.25842L150.757 10.4372Z" fill="white"/>
<path d="M154.755 11.9996V7.72746H157.641V8.17298H155.237V11.9996H154.755Z" fill="white"/>
<path d="M157.237 11.9996L159.184 7.69694H159.636L161.583 11.9996H161.064L160.564 10.8705H158.238L157.732 11.9996H157.237ZM158.428 10.4372H160.374L159.404 8.25842L158.428 10.4372Z" fill="white"/>
<path d="M162.431 8.63681L162.132 8.30725C162.529 7.95937 163.042 7.65422 163.823 7.65422C164.732 7.65422 165.349 8.11195 165.349 8.78939V8.8016C165.349 9.29594 165.05 9.66213 164.488 9.82691C165.056 9.94897 165.446 10.3029 165.446 10.84V10.8461C165.446 11.5419 164.806 12.0728 163.762 12.0728C163.011 12.0728 162.48 11.8165 162.071 11.4686L162.358 11.1208C162.731 11.4198 163.164 11.6395 163.768 11.6395C164.47 11.6395 164.946 11.2977 164.946 10.8339V10.8217C164.946 10.3152 164.488 10.0588 163.731 10.0588H162.999V9.63771H163.738C164.372 9.63771 164.848 9.36918 164.848 8.84432V8.83821C164.848 8.39269 164.445 8.08754 163.811 8.08754C163.225 8.08754 162.792 8.32556 162.431 8.63681Z" fill="white"/>
<path d="M170.055 11.9996H169.573V8.47813L166.839 11.9996H166.442V7.72746H166.924V11.1696L169.598 7.72746H170.055V11.9996Z" fill="white"/>
<path d="M171.264 11.9996V7.72746H171.746V9.62551H174.212V7.72746H174.694V11.9996H174.212V10.0771H171.746V11.9996H171.264Z" fill="white"/>
<path d="M175.535 11.9996L177.482 7.69694H177.933L179.88 11.9996H179.361L178.861 10.8705H176.536L176.029 11.9996H175.535ZM176.725 10.4372H178.672L177.701 8.25842L176.725 10.4372Z" fill="white"/>
<path d="M183.521 7.72746H184.082L182.507 9.8208L184.143 11.9996H183.569L182.202 10.1565L180.835 11.9996H180.28L181.915 9.8208L180.341 7.72746H180.908L182.214 9.48514L183.521 7.72746Z" fill="white"/>
<path d="M188.82 7.69694L190.725 11.9996H190.188L188.595 8.33776L187.008 11.9996H186.489L188.387 7.69694H188.82Z" fill="white"/>
<path d="M192.205 10.0588V9.63771H194.554C194.475 8.74057 193.828 8.09364 192.955 8.09364C192.376 8.09364 191.942 8.31945 191.552 8.67953L191.253 8.34997C191.686 7.94107 192.205 7.65422 192.968 7.65422C194.2 7.65422 195.067 8.6002 195.067 9.85132V9.86353C195.067 11.0841 194.2 12.0728 192.919 12.0728C192.18 12.0728 191.662 11.7982 191.222 11.3588L191.539 11.0231C191.954 11.4198 192.363 11.6334 192.919 11.6334C193.834 11.6334 194.475 10.9621 194.554 10.0588H192.205Z" fill="white"/>
<path d="M196.942 11.9996V8.17298H195.502V7.72746H198.864V8.17298H197.424V11.9996H196.942Z" fill="white"/>
<path d="M200.797 11.9996H200.26L201.145 10.5227L199.338 7.72746H199.893L201.413 10.1015L202.768 7.72746H203.317L200.797 11.9996Z" fill="white"/>
<path d="M202.909 11.9996L204.856 7.69694H205.307L207.254 11.9996H206.736L206.235 10.8705H203.91L203.403 11.9996H202.909ZM204.099 10.4372H206.046L205.076 8.25842L204.099 10.4372Z" fill="white"/>
<path d="M209.943 7.69694L211.847 11.9996H211.31L209.717 8.33776L208.13 11.9996H207.611L209.509 7.69694H209.943Z" fill="white"/>
<path d="M212.686 11.9996V7.72746H213.168V9.27153H214.273C215.231 9.27153 215.884 9.74757 215.884 10.602V10.6142C215.884 11.5113 215.158 11.9996 214.206 11.9996H212.686ZM213.168 11.5541H214.224C214.92 11.5541 215.396 11.2001 215.396 10.6325V10.6203C215.396 10.0283 214.938 9.71095 214.254 9.71095H213.168V11.5541Z" fill="white"/>
<path d="M220.551 12.0728C219.318 12.0728 218.409 11.1024 218.409 9.87573V9.86353C218.409 8.65512 219.318 7.65422 220.57 7.65422C221.345 7.65422 221.815 7.92276 222.236 8.33166L221.906 8.68564C221.54 8.34387 221.149 8.09974 220.564 8.09974C219.618 8.09974 218.91 8.86873 218.91 9.85132V9.86353C218.91 10.8522 219.618 11.6273 220.564 11.6273C221.149 11.6273 221.534 11.4015 221.943 11.0109L222.26 11.3222C221.821 11.7738 221.32 12.0728 220.551 12.0728Z" fill="white"/>
<path d="M224.646 11.9996V11.6273L226.197 10.2602C226.85 9.67433 227.088 9.34477 227.088 8.91755C227.088 8.4171 226.691 8.09974 226.227 8.09974C225.739 8.09974 225.421 8.34997 225.08 8.83211L224.726 8.57578C225.122 8.0021 225.507 7.66643 226.264 7.66643C227.033 7.66643 227.588 8.17908 227.588 8.87483V8.88704C227.588 9.50955 227.259 9.89404 226.508 10.5471L225.367 11.5602H227.631V11.9996H224.646Z" fill="white"/>
<path d="M228.772 11.9996L230.7 8.16688H228.35V7.72746H231.249V8.08754L229.309 11.9996H228.772Z" fill="white"/>
<path d="M235.988 12.0728C234.688 12.0728 233.816 11.0536 233.816 9.87573V9.86353C233.816 8.68564 234.701 7.65422 236.001 7.65422C237.301 7.65422 238.173 8.67343 238.173 9.85132V9.86353C238.173 11.0414 237.288 12.0728 235.988 12.0728ZM236.001 11.6273C236.977 11.6273 237.673 10.8461 237.673 9.87573V9.86353C237.673 8.89314 236.965 8.09974 235.988 8.09974C235.012 8.09974 234.316 8.88094 234.316 9.85132V9.86353C234.316 10.8339 235.024 11.6273 236.001 11.6273Z" fill="white"/>
<path d="M239.19 11.9996V7.72746H239.672V9.6011H240.368L242.15 7.72746H242.779L240.777 9.78419L242.87 11.9996H242.229L240.386 10.0344H239.672V11.9996H239.19Z" fill="white"/>
<path d="M244.646 11.9996V8.17298H243.205V7.72746H246.568V8.17298H245.128V11.9996H244.646Z" fill="white"/>
<path d="M250.625 7.72746V11.9996H250.143V10.3396H248.965L247.683 11.9996H247.091L248.428 10.2846C247.744 10.1687 247.244 9.72926 247.244 9.02131V9.0152C247.244 8.2157 247.866 7.72746 248.855 7.72746H250.625ZM250.143 8.17298H248.819C248.129 8.17298 247.732 8.50255 247.732 9.02131V9.02741C247.732 9.6133 248.22 9.90625 248.886 9.90625H250.143V8.17298Z" fill="white"/>
<path d="M251.831 11.9996V7.72746H254.846V8.16688H252.307V9.54617H253.65C254.572 9.54617 255.206 9.93066 255.206 10.7302V10.7424C255.206 11.5968 254.48 11.9996 253.583 11.9996H251.831ZM252.307 11.5602H253.601C254.248 11.5602 254.724 11.2794 254.724 10.7607V10.7485C254.724 10.2114 254.26 9.97338 253.626 9.97338H252.307V11.5602Z" fill="white"/>
<path d="M256.117 11.9996V7.72746H257.716C258.68 7.72746 259.315 8.24011 259.315 9.08234V9.09454C259.315 10.0161 258.546 10.4921 257.636 10.4921H256.599V11.9996H256.117ZM256.599 10.0527H257.655C258.362 10.0527 258.826 9.67433 258.826 9.11285V9.10065C258.826 8.49034 258.369 8.17298 257.679 8.17298H256.599V10.0527Z" fill="white"/>
<path d="M263.397 7.72746V11.9996H262.915V10.3396H261.737L260.456 11.9996H259.864L261.2 10.2846C260.517 10.1687 260.016 9.72926 260.016 9.02131V9.0152C260.016 8.2157 260.639 7.72746 261.627 7.72746H263.397ZM262.915 8.17298H261.591C260.901 8.17298 260.504 8.50255 260.504 9.02131V9.02741C260.504 9.6133 260.993 9.90625 261.658 9.90625H262.915V8.17298Z" fill="white"/>
<path d="M266.433 11.9996V7.72746H269.857V11.9996H269.375V8.17298H266.915V11.9996H266.433Z" fill="white"/>
<path d="M273.048 12.0728C271.748 12.0728 270.875 11.0536 270.875 9.87573V9.86353C270.875 8.68564 271.76 7.65422 273.06 7.65422C274.36 7.65422 275.233 8.67343 275.233 9.85132V9.86353C275.233 11.0414 274.348 12.0728 273.048 12.0728ZM273.06 11.6273C274.036 11.6273 274.732 10.8461 274.732 9.87573V9.86353C274.732 8.89314 274.024 8.09974 273.048 8.09974C272.071 8.09974 271.376 8.88094 271.376 9.85132V9.86353C271.376 10.8339 272.083 11.6273 273.06 11.6273Z" fill="white"/>
<path d="M279.373 12.0728C278.659 12.0728 278.128 11.7677 277.78 11.3099L278.128 10.9987C278.464 11.4076 278.848 11.6334 279.379 11.6334C279.898 11.6334 280.313 11.3099 280.313 10.8034V10.7912C280.313 10.2602 279.819 9.96728 279.117 9.96728H278.842L278.744 9.68043L280.093 8.16078H278.006V7.72746H280.734V8.08144L279.391 9.57058C280.136 9.63771 280.801 9.98559 280.801 10.7729V10.7851C280.801 11.548 280.166 12.0728 279.373 12.0728Z" fill="white"/>
<path d="M283.397 12.0728C282.292 12.0728 281.596 11.0719 281.596 9.87573V9.86353C281.596 8.66733 282.31 7.65422 283.409 7.65422C284.507 7.65422 285.203 8.65512 285.203 9.85132V9.86353C285.203 11.0597 284.495 12.0728 283.397 12.0728ZM283.409 11.6334C284.214 11.6334 284.703 10.8095 284.703 9.87573V9.86353C284.703 8.93586 284.196 8.09364 283.397 8.09364C282.597 8.09364 282.097 8.91145 282.097 9.85132V9.86353C282.097 10.7912 282.603 11.6334 283.409 11.6334Z" fill="white"/>
<path d="M5.33431 17.9996V13.7275H5.81645V15.6255H8.28208V13.7275H8.76422V17.9996H8.28208V16.0771H5.81645V17.9996H5.33431Z" fill="white"/>
<path d="M11.9547 18.0728C10.6547 18.0728 9.782 17.0536 9.782 15.8757V15.8635C9.782 14.6856 10.6669 13.6542 11.9669 13.6542C13.2668 13.6542 14.1396 14.6734 14.1396 15.8513V15.8635C14.1396 17.0414 13.2546 18.0728 11.9547 18.0728ZM11.9669 17.6273C12.9434 17.6273 13.6391 16.8461 13.6391 15.8757V15.8635C13.6391 14.8931 12.9312 14.0997 11.9547 14.0997C10.9782 14.0997 10.2824 14.8809 10.2824 15.8513V15.8635C10.2824 16.8339 10.9904 17.6273 11.9669 17.6273Z" fill="white"/>
<path d="M18.3605 13.7275V17.9996H17.8784V16.3396H16.7005L15.4188 17.9996H14.8268L16.1634 16.2846C15.4799 16.1687 14.9794 15.7293 14.9794 15.0213V15.0152C14.9794 14.2157 15.6019 13.7275 16.5906 13.7275H18.3605ZM17.8784 14.173H16.554C15.8644 14.173 15.4677 14.5025 15.4677 15.0213V15.0274C15.4677 15.6133 15.9559 15.9062 16.6211 15.9062H17.8784V14.173Z" fill="white"/>
<path d="M19.5668 17.9996V13.7275H22.5817V14.1669H20.0428V15.5462H21.3855C22.3071 15.5462 22.9418 15.9307 22.9418 16.7302V16.7424C22.9418 17.5968 22.2155 17.9996 21.3184 17.9996H19.5668ZM20.0428 17.5602H21.3367C21.9836 17.5602 22.4597 17.2794 22.4597 16.7607V16.7485C22.4597 16.2114 21.9958 15.9734 21.3611 15.9734H20.0428V17.5602Z" fill="white"/>
<path d="M23.8521 17.9996V13.7275H25.451C26.4153 13.7275 27.05 14.2401 27.05 15.0823V15.0945C27.05 16.0161 26.2811 16.4921 25.3717 16.4921H24.3342V17.9996H23.8521ZM24.3342 16.0527H25.39C26.098 16.0527 26.5618 15.6743 26.5618 15.1129V15.1006C26.5618 14.4903 26.1041 14.173 25.4144 14.173H24.3342V16.0527Z" fill="white"/>
<path d="M31.1328 13.7275V17.9996H30.6507V16.3396H29.4728L28.1911 17.9996H27.5991L28.9357 16.2846C28.2522 16.1687 27.7517 15.7293 27.7517 15.0213V15.0152C27.7517 14.2157 28.3742 13.7275 29.3629 13.7275H31.1328ZM30.6507 14.173H29.3263C28.6366 14.173 28.24 14.5025 28.24 15.0213V15.0274C28.24 15.6133 28.7282 15.9062 29.3934 15.9062H30.6507V14.173Z" fill="white"/>
<path d="M33.8576 17.9996V17.6273L35.4077 16.2602C36.0608 15.6743 36.2988 15.3448 36.2988 14.9176C36.2988 14.4171 35.9021 14.0997 35.4383 14.0997C34.95 14.0997 34.6327 14.35 34.2909 14.8321L33.9369 14.5758C34.3336 14.0021 34.7181 13.6664 35.4749 13.6664C36.2439 13.6664 36.7992 14.1791 36.7992 14.8748V14.887C36.7992 15.5095 36.4697 15.894 35.719 16.5471L34.5777 17.5602H36.842V17.9996H33.8576Z" fill="white"/>
<path d="M39.3969 18.0728C38.2922 18.0728 37.5965 17.0719 37.5965 15.8757V15.8635C37.5965 14.6673 38.3106 13.6542 39.4091 13.6542C40.5077 13.6542 41.2034 14.6551 41.2034 15.8513V15.8635C41.2034 17.0597 40.4954 18.0728 39.3969 18.0728ZM39.4091 17.6334C40.2147 17.6334 40.703 16.8095 40.703 15.8757V15.8635C40.703 14.9359 40.1964 14.0936 39.3969 14.0936C38.5974 14.0936 38.097 14.9115 38.097 15.8513V15.8635C38.097 16.7912 38.6035 17.6334 39.4091 17.6334Z" fill="white"/>
<path d="M41.8142 17.9996V17.6273L43.3644 16.2602C44.0174 15.6743 44.2554 15.3448 44.2554 14.9176C44.2554 14.4171 43.8587 14.0997 43.3949 14.0997C42.9066 14.0997 42.5893 14.35 42.2475 14.8321L41.8935 14.5758C42.2902 14.0021 42.6747 13.6664 43.4315 13.6664C44.2005 13.6664 44.7559 14.1791 44.7559 14.8748V14.887C44.7559 15.5095 44.4263 15.894 43.6756 16.5471L42.5343 17.5602H44.7986V17.9996H41.8142Z" fill="white"/>
<path d="M47.0728 18.0728C46.3587 18.0728 45.8277 17.7677 45.4799 17.3099L45.8277 16.9987C46.1634 17.4076 46.5479 17.6334 47.0789 17.6334C47.5976 17.6334 48.0126 17.3099 48.0126 16.8034V16.7912C48.0126 16.2602 47.5183 15.9673 46.8164 15.9673H46.5418L46.4442 15.6804L47.7929 14.1608H45.7057V13.7275H48.4338V14.0814L47.0911 15.5706C47.8357 15.6377 48.5009 15.9856 48.5009 16.7729V16.7851C48.5009 17.548 47.8662 18.0728 47.0728 18.0728Z" fill="white"/>
<path d="M51.3515 17.9996V13.7275H54.2383V14.173H51.8337V17.9996H51.3515Z" fill="white"/>
<path d="M56.8097 18.0728C55.5098 18.0728 54.637 17.0536 54.637 15.8757V15.8635C54.637 14.6856 55.522 13.6542 56.8219 13.6542C58.1219 13.6542 58.9946 14.6734 58.9946 15.8513V15.8635C58.9946 17.0414 58.1097 18.0728 56.8097 18.0728ZM56.8219 17.6273C57.7984 17.6273 58.4942 16.8461 58.4942 15.8757V15.8635C58.4942 14.8931 57.7862 14.0997 56.8097 14.0997C55.8332 14.0997 55.1375 14.8809 55.1375 15.8513V15.8635C55.1375 16.8339 55.8454 17.6273 56.8219 17.6273Z" fill="white"/>
<path d="M59.3529 17.5541H59.7618L61.4585 13.6969H61.965L63.6617 17.5541H64.0706V18.8906H63.6067V17.9996H59.8167V18.8906H59.3529V17.5541ZM61.7087 14.2462L60.2684 17.5663H63.1368L61.7087 14.2462Z" fill="white"/>
<path d="M64.449 17.9996L66.3959 13.6969H66.8475L68.7944 17.9996H68.2756L67.7752 16.8705H65.4499L64.9434 17.9996H64.449ZM65.6391 16.4372H67.586L66.6156 14.2584L65.6391 16.4372Z" fill="white"/>
<path d="M71.4666 17.9996V13.7275H73.2853C73.7735 13.7275 74.158 13.8678 74.4021 14.1058C74.5852 14.295 74.6768 14.527 74.6768 14.7894V14.8016C74.6768 15.357 74.335 15.6438 73.9993 15.7903C74.5059 15.9368 74.9148 16.2419 74.9148 16.8217V16.8339C74.9148 17.5663 74.2984 17.9996 73.3646 17.9996H71.4666ZM74.1885 14.8687V14.8565C74.1885 14.4354 73.8529 14.1608 73.2425 14.1608H71.9426V15.6316H73.2059C73.7918 15.6316 74.1885 15.3753 74.1885 14.8687ZM74.4265 16.8034V16.7912C74.4265 16.3274 74.042 16.0588 73.2914 16.0588H71.9426V17.5663H73.3768C74.0298 17.5663 74.4265 17.2855 74.4265 16.8034Z" fill="white"/>
<path d="M75.871 17.9996V13.7275H76.3531V15.6011H77.0489L78.831 13.7275H79.4596L77.4578 15.7842L79.5511 17.9996H78.9103L77.0672 16.0344H76.3531V17.9996H75.871Z" fill="white"/>
<path d="M82.1214 13.6969L84.0256 17.9996H83.4885L81.8956 14.3378L80.3088 17.9996H79.7901L81.6881 13.6969H82.1214Z" fill="white"/>
<path d="M84.8647 17.9996V13.7275H85.3468V15.6255H86.3172C86.4148 14.5697 87.2449 13.6542 88.4105 13.6542C89.6617 13.6542 90.51 14.6978 90.51 15.8513V15.8635C90.51 17.017 89.6556 18.0728 88.3983 18.0728C87.2021 18.0728 86.4087 17.1513 86.3111 16.0771H85.3468V17.9996H84.8647ZM88.4105 17.6273C89.3565 17.6273 90.0034 16.8278 90.0034 15.8757V15.8635C90.0034 14.9115 89.3382 14.0997 88.3983 14.0997C87.4646 14.0997 86.8115 14.8992 86.8115 15.8513V15.8635C86.8115 16.8156 87.4768 17.6273 88.4105 17.6273Z" fill="white"/>
<path d="M94.0501 17.9996V16.3213C93.6778 16.4372 93.2384 16.4921 92.9027 16.4921C91.9079 16.4921 91.3037 16.0832 91.3037 15.064V13.7275H91.792V14.9786C91.792 15.7537 92.1642 16.0527 92.9454 16.0527C93.2811 16.0527 93.6778 15.9978 94.0501 15.8757V13.7275H94.5383V17.9996H94.0501Z" fill="white"/>
<path d="M99.3606 17.9996H98.8785V14.4781L96.1443 17.9996H95.7476V13.7275H96.2298V17.1696L98.9029 13.7275H99.3606V17.9996Z" fill="white"/>
<path d="M101.68 17.9996V14.173H100.24V13.7275H103.603V14.173H102.162V17.9996H101.68Z" fill="white"/>
<path d="M104.479 17.9996V13.7275H107.567V14.1669H104.961V15.6255H107.293V16.0649H104.961V17.5602H107.598V17.9996H104.479Z" fill="white"/>
<path d="M110.533 13.6969L112.437 17.9996H111.9L110.307 14.3378L108.72 17.9996H108.201L110.099 13.6969H110.533Z" fill="white"/>
<path d="M113.276 17.9996V13.7275H113.758V15.2715H114.863C115.821 15.2715 116.474 15.7476 116.474 16.602V16.6142C116.474 17.5113 115.748 17.9996 114.796 17.9996H113.276ZM113.758 17.5541H114.814C115.51 17.5541 115.986 17.2001 115.986 16.6325V16.6203C115.986 16.0283 115.528 15.7109 114.845 15.7109H113.758V17.5541Z" fill="white"/>
<path d="M117.359 17.9996V13.7275H117.841V15.6255H120.306V13.7275H120.789V17.9996H120.306V16.0771H117.841V17.9996H117.359Z" fill="white"/>
<path d="M123.979 18.0728C122.679 18.0728 121.806 17.0536 121.806 15.8757V15.8635C121.806 14.6856 122.691 13.6542 123.991 13.6542C125.291 13.6542 126.164 14.6734 126.164 15.8513V15.8635C126.164 17.0414 125.279 18.0728 123.979 18.0728ZM123.991 17.6273C124.968 17.6273 125.663 16.8461 125.663 15.8757V15.8635C125.663 14.8931 124.955 14.0997 123.979 14.0997C123.003 14.0997 122.307 14.8809 122.307 15.8513V15.8635C122.307 16.8339 123.015 17.6273 123.991 17.6273Z" fill="white"/>
<path d="M126.796 17.9996V17.3588H127.357V17.9996H126.796Z" fill="white"/>
<path d="M130.256 17.9996V13.7275H133.68V17.9996H133.198V14.173H130.738V17.9996H130.256Z" fill="white"/>
<path d="M134.887 17.9996V13.7275H136.486C137.45 13.7275 138.085 14.2401 138.085 15.0823V15.0945C138.085 16.0161 137.316 16.4921 136.407 16.4921H135.369V17.9996H134.887ZM135.369 16.0527H136.425C137.133 16.0527 137.597 15.6743 137.597 15.1129V15.1006C137.597 14.4903 137.139 14.173 136.449 14.173H135.369V16.0527Z" fill="white"/>
<path d="M142.577 17.9996H142.095V14.4781L139.36 17.9996H138.964V13.7275H139.446V17.1696L142.119 13.7275H142.577V17.9996Z" fill="white"/>
<path d="M145.615 17.9996V13.7275H149.039V17.9996H148.557V14.173H146.097V17.9996H145.615Z" fill="white"/>
<path d="M152.229 18.0728C150.929 18.0728 150.057 17.0536 150.057 15.8757V15.8635C150.057 14.6856 150.942 13.6542 152.242 13.6542C153.542 13.6542 154.414 14.6734 154.414 15.8513V15.8635C154.414 17.0414 153.529 18.0728 152.229 18.0728ZM152.242 17.6273C153.218 17.6273 153.914 16.8461 153.914 15.8757V15.8635C153.914 14.8931 153.206 14.0997 152.229 14.0997C151.253 14.0997 150.557 14.8809 150.557 15.8513V15.8635C150.557 16.8339 151.265 17.6273 152.242 17.6273Z" fill="white"/>
<path d="M155.431 17.9996V13.7275H155.913V15.6011H156.609L158.391 13.7275H159.02L157.018 15.7842L159.111 17.9996H158.47L156.627 16.0344H155.913V17.9996H155.431Z" fill="white"/>
<path d="M160.778 17.9996H160.241L161.126 16.5227L159.32 13.7275H159.875L161.395 16.1015L162.749 13.7275H163.299L160.778 17.9996Z" fill="white"/>
<path d="M164.049 17.9996V13.7275H167.473V17.9996H166.991V14.173H164.531V17.9996H164.049Z" fill="white"/>
<path d="M168.68 17.9996V13.7275H169.162V15.6011H169.858L171.64 13.7275H172.269L170.267 15.7842L172.36 17.9996H171.72L169.876 16.0344H169.162V17.9996H168.68Z" fill="white"/>
<path d="M173.085 17.9996V13.7275H176.173V14.1669H173.567V15.6255H175.898V16.0649H173.567V17.5602H176.203V17.9996H173.085Z" fill="white"/>
<path d="M180.986 18.0728C179.687 18.0728 178.814 17.0536 178.814 15.8757V15.8635C178.814 14.6856 179.699 13.6542 180.999 13.6542C182.299 13.6542 183.171 14.6734 183.171 15.8513V15.8635C183.171 17.0414 182.286 18.0728 180.986 18.0728ZM180.999 17.6273C181.975 17.6273 182.671 16.8461 182.671 15.8757V15.8635C182.671 14.8931 181.963 14.0997 180.986 14.0997C180.01 14.0997 179.314 14.8809 179.314 15.8513V15.8635C179.314 16.8339 180.022 17.6273 180.999 17.6273Z" fill="white"/>
<path d="M185.025 17.9996V14.173H183.584V13.7275H186.947V14.173H185.507V17.9996H185.025Z" fill="white"/>
<path d="M191.082 18.0728C190.612 18.0728 190.227 17.908 189.959 17.6395C189.617 17.2977 189.422 16.8583 189.422 15.9856V15.9734C189.422 14.6734 190.075 13.6542 191.198 13.6542C191.71 13.6542 192.089 13.8312 192.461 14.1425L192.18 14.5148C191.863 14.2462 191.564 14.0936 191.173 14.0936C190.343 14.0936 189.916 14.9603 189.916 15.9246V15.9856C190.203 15.5706 190.575 15.3265 191.137 15.3265C191.936 15.3265 192.614 15.833 192.614 16.6386V16.6508C192.614 17.4747 191.942 18.0728 191.082 18.0728ZM191.088 17.6456C191.716 17.6456 192.119 17.2123 192.119 16.6691V16.6569C192.119 16.1382 191.692 15.7415 191.076 15.7415C190.435 15.7415 190.008 16.2053 190.008 16.6752V16.6874C190.008 17.2306 190.453 17.6456 191.088 17.6456Z" fill="white"/>
<path d="M195.18 18.0728C194.075 18.0728 193.379 17.0719 193.379 15.8757V15.8635C193.379 14.6673 194.093 13.6542 195.192 13.6542C196.29 13.6542 196.986 14.6551 196.986 15.8513V15.8635C196.986 17.0597 196.278 18.0728 195.18 18.0728ZM195.192 17.6334C195.997 17.6334 196.486 16.8095 196.486 15.8757V15.8635C196.486 14.9359 195.979 14.0936 195.18 14.0936C194.38 14.0936 193.88 14.9115 193.88 15.8513V15.8635C193.88 16.7912 194.386 17.6334 195.192 17.6334Z" fill="white"/>
<path d="M199.542 18.0728C198.438 18.0728 197.742 17.0719 197.742 15.8757V15.8635C197.742 14.6673 198.456 13.6542 199.555 13.6542C200.653 13.6542 201.349 14.6551 201.349 15.8513V15.8635C201.349 17.0597 200.641 18.0728 199.542 18.0728ZM199.555 17.6334C200.36 17.6334 200.848 16.8095 200.848 15.8757V15.8635C200.848 14.9359 200.342 14.0936 199.542 14.0936C198.743 14.0936 198.242 14.9115 198.242 15.8513V15.8635C198.242 16.7912 198.749 17.6334 199.555 17.6334Z" fill="white"/>
<path d="M203.905 18.0728C202.8 18.0728 202.105 17.0719 202.105 15.8757V15.8635C202.105 14.6673 202.819 13.6542 203.917 13.6542C205.016 13.6542 205.712 14.6551 205.712 15.8513V15.8635C205.712 17.0597 205.004 18.0728 203.905 18.0728ZM203.917 17.6334C204.723 17.6334 205.211 16.8095 205.211 15.8757V15.8635C205.211 14.9359 204.705 14.0936 203.905 14.0936C203.106 14.0936 202.605 14.9115 202.605 15.8513V15.8635C202.605 16.7912 203.112 17.6334 203.917 17.6334Z" fill="white"/>
<path d="M208.523 17.9996V13.7275H210.122C211.086 13.7275 211.721 14.2401 211.721 15.0823V15.0945C211.721 16.0161 210.952 16.4921 210.043 16.4921H209.005V17.9996H208.523ZM209.005 16.0527H210.061C210.769 16.0527 211.233 15.6743 211.233 15.1129V15.1006C211.233 14.4903 210.775 14.173 210.085 14.173H209.005V16.0527Z" fill="white"/>
<path d="M213.566 17.9996H213.029L213.914 16.5227L212.107 13.7275H212.663L214.182 16.1015L215.537 13.7275H216.087L213.566 17.9996Z" fill="white"/>
<path d="M216.837 17.9996V13.7275H219.852V14.1669H217.313V15.5462H218.656C219.577 15.5462 220.212 15.9307 220.212 16.7302V16.7424C220.212 17.5968 219.486 17.9996 218.589 17.9996H216.837ZM217.313 17.5602H218.607C219.254 17.5602 219.73 17.2794 219.73 16.7607V16.7485C219.73 16.2114 219.266 15.9734 218.631 15.9734H217.313V17.5602Z" fill="white"/>
<path d="M220.982 17.9996V17.3588H221.543V17.9996H220.982Z" fill="white"/>
<path d="M222.362 18.7442L222.289 18.5306C222.6 18.4146 222.722 18.262 222.698 17.9996H222.478V17.3588H223.04V17.908C223.04 18.4024 222.826 18.6404 222.362 18.7442Z" fill="white"/>
<path d="M227.183 18.0728C226.573 18.0728 226.048 17.786 225.657 17.3954L225.975 17.0475C226.347 17.4137 226.75 17.6334 227.189 17.6334C227.799 17.6334 228.221 17.2306 228.221 16.6874V16.6752C228.221 16.1382 227.775 15.7781 227.159 15.7781C226.792 15.7781 226.512 15.8818 226.262 16.0222L225.938 15.8086L226.06 13.7275H228.52V14.173H226.481L226.39 15.5401C226.64 15.4241 226.872 15.3509 227.232 15.3509C228.062 15.3509 228.709 15.8452 228.709 16.6569V16.6691C228.709 17.5052 228.08 18.0728 227.183 18.0728Z" fill="white"/>
<path d="M231.25 18.0728C230.145 18.0728 229.449 17.0719 229.449 15.8757V15.8635C229.449 14.6673 230.163 13.6542 231.262 13.6542C232.36 13.6542 233.056 14.6551 233.056 15.8513V15.8635C233.056 17.0597 232.348 18.0728 231.25 18.0728ZM231.262 17.6334C232.067 17.6334 232.556 16.8095 232.556 15.8757V15.8635C232.556 14.9359 232.049 14.0936 231.25 14.0936C230.45 14.0936 229.95 14.9115 229.95 15.8513V15.8635C229.95 16.7912 230.456 17.6334 231.262 17.6334Z" fill="white"/>
<path d="M234.715 15.8635C234.135 15.8635 233.751 15.3509 233.751 14.7833V14.7711C233.751 14.1913 234.141 13.6786 234.727 13.6786C235.295 13.6786 235.686 14.1913 235.686 14.7589V14.7711C235.686 15.3509 235.295 15.8635 234.715 15.8635ZM234.715 14.0204C234.379 14.0204 234.16 14.35 234.16 14.7589V14.7711C234.16 15.1922 234.41 15.5218 234.727 15.5218C235.057 15.5218 235.283 15.1922 235.283 14.7833V14.7711C235.283 14.35 235.026 14.0204 234.715 14.0204ZM235.838 15.772L237.327 13.7275H237.761L236.113 15.9673L234.63 17.9996H234.19L235.838 15.772ZM237.23 18.0484C236.662 18.0484 236.271 17.5358 236.271 16.9682V16.956C236.271 16.3762 236.662 15.8635 237.242 15.8635C237.828 15.8635 238.2 16.3762 238.2 16.9438V16.956C238.2 17.5358 237.816 18.0484 237.23 18.0484ZM237.242 17.7066C237.577 17.7066 237.797 17.3771 237.797 16.9682V16.956C237.797 16.5349 237.547 16.2053 237.23 16.2053C236.9 16.2053 236.674 16.5349 236.674 16.9438V16.956C236.674 17.3771 236.924 17.7066 237.242 17.7066Z" fill="white"/>
<path d="M242.91 18.0728C241.677 18.0728 240.768 17.1024 240.768 15.8757V15.8635C240.768 14.6551 241.677 13.6542 242.929 13.6542C243.704 13.6542 244.174 13.9228 244.595 14.3317L244.265 14.6856C243.899 14.3439 243.508 14.0997 242.922 14.0997C241.976 14.0997 241.269 14.8687 241.269 15.8513V15.8635C241.269 16.8522 241.976 17.6273 242.922 17.6273C243.508 17.6273 243.893 17.4015 244.302 17.0109L244.619 17.3222C244.18 17.7738 243.679 18.0728 242.91 18.0728Z" fill="white"/>
<path d="M246.598 17.9996V14.173H245.157V13.7275H248.52V14.173H247.08V17.9996H246.598Z" fill="white"/>
<path d="M251.106 18.0728C249.806 18.0728 248.933 17.0536 248.933 15.8757V15.8635C248.933 14.6856 249.818 13.6542 251.118 13.6542C252.418 13.6542 253.291 14.6734 253.291 15.8513V15.8635C253.291 17.0414 252.406 18.0728 251.106 18.0728ZM251.118 17.6273C252.095 17.6273 252.79 16.8461 252.79 15.8757V15.8635C252.79 14.8931 252.082 14.0997 251.106 14.0997C250.129 14.0997 249.434 14.8809 249.434 15.8513V15.8635C249.434 16.8339 250.142 17.6273 251.118 17.6273Z" fill="white"/>
<path d="M257.921 17.9996H257.439V14.4781L254.704 17.9996H254.308V13.7275H254.79V17.1696L257.463 13.7275H257.921V17.9996Z" fill="white"/>
<path d="M259.129 17.9996V13.7275H259.618L261.174 16.0588L262.73 13.7275H263.218V17.9996H262.736V14.5392L261.18 16.8278H261.156L259.599 14.5453V17.9996H259.129Z" fill="white"/>
<path d="M266.411 18.0728C265.111 18.0728 264.239 17.0536 264.239 15.8757V15.8635C264.239 14.6856 265.124 13.6542 266.424 13.6542C267.723 13.6542 268.596 14.6734 268.596 15.8513V15.8635C268.596 17.0414 267.711 18.0728 266.411 18.0728ZM266.424 17.6273C267.4 17.6273 268.096 16.8461 268.096 15.8757V15.8635C268.096 14.8931 267.388 14.0997 266.411 14.0997C265.435 14.0997 264.739 14.8809 264.739 15.8513V15.8635C264.739 16.8339 265.447 17.6273 266.424 17.6273Z" fill="white"/>
<path d="M271.566 18.0728C270.333 18.0728 269.424 17.1024 269.424 15.8757V15.8635C269.424 14.6551 270.333 13.6542 271.584 13.6542C272.359 13.6542 272.829 13.9228 273.25 14.3317L272.921 14.6856C272.555 14.3439 272.164 14.0997 271.578 14.0997C270.632 14.0997 269.924 14.8687 269.924 15.8513V15.8635C269.924 16.8522 270.632 17.6273 271.578 17.6273C272.164 17.6273 272.549 17.4015 272.957 17.0109L273.275 17.3222C272.835 17.7738 272.335 18.0728 271.566 18.0728Z" fill="white"/>
<path d="M275.253 17.9996V14.173H273.813V13.7275H277.176V14.173H275.736V17.9996H275.253Z" fill="white"/>
<path d="M281.665 17.9996H281.183V14.4781L278.449 17.9996H278.052V13.7275H278.535V17.1696L281.208 13.7275H281.665V17.9996Z" fill="white"/>
<path d="M21.1283 23.9996V19.7275H21.6105V21.6255H24.0761V19.7275H24.5582V23.9996H24.0761V22.0771H21.6105V23.9996H21.1283Z" fill="white"/>
<path d="M25.399 23.9996L27.3459 19.6969H27.7975L29.7444 23.9996H29.2257L28.7252 22.8705H26.3999L25.8934 23.9996H25.399ZM26.5891 22.4372H28.536L27.5656 20.2584L26.5891 22.4372Z" fill="white"/>
<path d="M32.7156 23.9996V22.3213C32.3434 22.4372 31.9039 22.4921 31.5683 22.4921C30.5735 22.4921 29.9693 22.0832 29.9693 21.064V19.7275H30.4575V20.9786C30.4575 21.7537 30.8298 22.0527 31.611 22.0527C31.9467 22.0527 32.3434 21.9978 32.7156 21.8757V19.7275H33.2039V23.9996H32.7156Z" fill="white"/>
<path d="M38.0262 23.9996H37.5441V20.4781L34.8099 23.9996H34.4132V19.7275H34.8953V23.1696L37.5685 19.7275H38.0262V23.9996Z" fill="white"/>
<path d="M41.1878 24.0728C39.955 24.0728 39.0456 23.1024 39.0456 21.8757V21.8635C39.0456 20.6551 39.955 19.6542 41.2061 19.6542C41.9812 19.6542 42.4511 19.9228 42.8723 20.3317L42.5427 20.6856C42.1765 20.3439 41.7859 20.0997 41.2 20.0997C40.2541 20.0997 39.5461 20.8687 39.5461 21.8513V21.8635C39.5461 22.8522 40.2541 23.6273 41.2 23.6273C41.7859 23.6273 42.1704 23.4015 42.5793 23.0109L42.8967 23.3222C42.4573 23.7738 41.9568 24.0728 41.1878 24.0728Z" fill="white"/>
<path d="M45.7058 19.6969L47.6099 23.9996H47.0729L45.48 20.3378L43.8932 23.9996H43.3744L45.2725 19.6969H45.7058Z" fill="white"/>
<path d="M51.6531 19.7275V23.9996H51.171V22.3396H49.9931L48.7114 23.9996H48.1194L49.456 22.2846C48.7725 22.1687 48.272 21.7293 48.272 21.0213V21.0152C48.272 20.2157 48.8945 19.7275 49.8832 19.7275H51.6531ZM51.171 20.173H49.8466C49.157 20.173 48.7603 20.5025 48.7603 21.0213V21.0274C48.7603 21.6133 49.2485 21.9062 49.9137 21.9062H51.171V20.173Z" fill="white"/>
<path d="M52.8594 23.9996V19.7275H55.9476V20.1669H53.3416V21.6255H55.6729V22.0649H53.3416V23.5602H55.9781V23.9996H52.8594Z" fill="white"/>
<path d="M58.0349 23.9996V20.173H56.5946V19.7275H59.9574V20.173H58.517V23.9996H58.0349Z" fill="white"/>
<path d="M62.5127 24.0728C61.2799 24.0728 60.3706 23.1024 60.3706 21.8757V21.8635C60.3706 20.6551 61.2799 19.6542 62.531 19.6542C63.3061 19.6542 63.7761 19.9228 64.1972 20.3317L63.8676 20.6856C63.5014 20.3439 63.1108 20.0997 62.5249 20.0997C61.579 20.0997 60.871 20.8687 60.871 21.8513V21.8635C60.871 22.8522 61.579 23.6273 62.5249 23.6273C63.1108 23.6273 63.4953 23.4015 63.9042 23.0109L64.2216 23.3222C63.7822 23.7738 63.2817 24.0728 62.5127 24.0728Z" fill="white"/>
<path d="M68.2875 19.7275V23.9996H67.8054V22.3396H66.6275L65.3458 23.9996H64.7538L66.0904 22.2846C65.4069 22.1687 64.9064 21.7293 64.9064 21.0213V21.0152C64.9064 20.2157 65.5289 19.7275 66.5176 19.7275H68.2875ZM67.8054 20.173H66.481C65.7914 20.173 65.3947 20.5025 65.3947 21.0213V21.0274C65.3947 21.6133 65.8829 21.9062 66.5481 21.9062H67.8054V20.173Z" fill="white"/>
<path d="M71.3235 23.9996V19.7275H74.3384V20.1669H71.7996V21.5462H73.1422C74.0638 21.5462 74.6985 21.9307 74.6985 22.7302V22.7424C74.6985 23.5968 73.9723 23.9996 73.0751 23.9996H71.3235ZM71.7996 23.5602H73.0934C73.7403 23.5602 74.2164 23.2794 74.2164 22.7607V22.7485C74.2164 22.2114 73.7525 21.9734 73.1178 21.9734H71.7996V23.5602Z" fill="white"/>
<path d="M77.5923 24.0728C76.2923 24.0728 75.4196 23.0536 75.4196 21.8757V21.8635C75.4196 20.6856 76.3045 19.6542 77.6045 19.6542C78.9044 19.6542 79.7772 20.6734 79.7772 21.8513V21.8635C79.7772 23.0414 78.8922 24.0728 77.5923 24.0728ZM77.6045 23.6273C78.581 23.6273 79.2767 22.8461 79.2767 21.8757V21.8635C79.2767 20.8931 78.5688 20.0997 77.5923 20.0997C76.6158 20.0997 75.92 20.8809 75.92 21.8513V21.8635C75.92 22.8339 76.628 23.6273 77.6045 23.6273Z" fill="white"/>
<path d="M80.794 23.9996V19.7275H81.2761V21.6255H83.7418V19.7275H84.2239V23.9996H83.7418V22.0771H81.2761V23.9996H80.794Z" fill="white"/>
<path d="M86.4867 23.9996H85.9496L86.8346 22.5227L85.0281 19.7275H85.5835L87.1031 22.1015L88.458 19.7275H89.0073L86.4867 23.9996Z" fill="white"/>
<path d="M91.3771 24.0728C90.1442 24.0728 89.2349 23.1024 89.2349 21.8757V21.8635C89.2349 20.6551 90.1442 19.6542 91.3954 19.6542C92.1704 19.6542 92.6404 19.9228 93.0615 20.3317L92.7319 20.6856C92.3657 20.3439 91.9751 20.0997 91.3893 20.0997C90.4433 20.0997 89.7353 20.8687 89.7353 21.8513V21.8635C89.7353 22.8522 90.4433 23.6273 91.3893 23.6273C91.9751 23.6273 92.3596 23.4015 92.7685 23.0109L93.0859 23.3222C92.6465 23.7738 92.146 24.0728 91.3771 24.0728Z" fill="white"/>
<path d="M93.5637 23.9996L95.5105 19.6969H95.9622L97.909 23.9996H97.3903L96.8898 22.8705H94.5646L94.058 23.9996H93.5637ZM94.7538 22.4372H96.7006L95.7302 20.2584L94.7538 22.4372Z" fill="white"/>
<path d="M98.7515 23.9996V19.7275H99.2397L100.796 22.0588L102.352 19.7275H102.841V23.9996H102.358V20.5392L100.802 22.8278H100.778L99.2214 20.5453V23.9996H98.7515Z" fill="white"/>
<path d="M107.663 23.9996H107.181V20.4781L104.447 23.9996H104.05V19.7275H104.532V23.1696L107.205 19.7275H107.663V23.9996Z" fill="white"/>
<path d="M110.701 23.9996V19.7275H111.183V21.6255H113.649V19.7275H114.131V23.9996H113.649V22.0771H111.183V23.9996H110.701Z" fill="white"/>
<path d="M114.972 23.9996L116.919 19.6969H117.371L119.317 23.9996H118.799L118.298 22.8705H115.973L115.466 23.9996H114.972ZM116.162 22.4372H118.109L117.139 20.2584L116.162 22.4372Z" fill="white"/>
<path d="M121.99 23.9996V19.7275H122.472V21.6011H123.167L124.95 19.7275H125.578L123.576 21.7842L125.67 23.9996H125.029L123.186 22.0344H122.472V23.9996H121.99Z" fill="white"/>
<path d="M125.909 23.9996L127.855 19.6969H128.307L130.254 23.9996H129.735L129.235 22.8705H126.91L126.403 23.9996H125.909ZM127.099 22.4372H129.046L128.075 20.2584L127.099 22.4372Z" fill="white"/>
<path d="M131.096 23.9996V19.7275H132.695C133.66 19.7275 134.294 20.2401 134.294 21.0823V21.0945C134.294 22.0161 133.525 22.4921 132.616 22.4921H131.579V23.9996H131.096ZM131.579 22.0527H132.634C133.342 22.0527 133.806 21.6743 133.806 21.1129V21.1006C133.806 20.4903 133.348 20.173 132.659 20.173H131.579V22.0527Z" fill="white"/>
<path d="M136.284 23.9996V20.173H134.844V19.7275H138.206V20.173H136.766V23.9996H136.284Z" fill="white"/>
<path d="M140.139 23.9996H139.602L140.487 22.5227L138.68 19.7275H139.235L140.755 22.1015L142.11 19.7275H142.659L140.139 23.9996Z" fill="white"/>
<path d="M145.24 23.9996V19.7275H148.663V23.9996H148.181V20.173H145.722V23.9996H145.24Z" fill="white"/>
<path d="M149.87 23.9996V19.7275H151.469C152.434 19.7275 153.068 20.2401 153.068 21.0823V21.0945C153.068 22.0161 152.299 22.4921 151.39 22.4921H150.353V23.9996H149.87ZM150.353 22.0527H151.408C152.116 22.0527 152.58 21.6743 152.58 21.1129V21.1006C152.58 20.4903 152.122 20.173 151.433 20.173H150.353V22.0527Z" fill="white"/>
<path d="M155.931 24.0728C154.631 24.0728 153.758 23.0536 153.758 21.8757V21.8635C153.758 20.6856 154.643 19.6542 155.943 19.6542C157.243 19.6542 158.116 20.6734 158.116 21.8513V21.8635C158.116 23.0414 157.231 24.0728 155.931 24.0728ZM155.943 23.6273C156.919 23.6273 157.615 22.8461 157.615 21.8757V21.8635C157.615 20.8931 156.907 20.0997 155.931 20.0997C154.954 20.0997 154.258 20.8809 154.258 21.8513V21.8635C154.258 22.8339 154.966 23.6273 155.943 23.6273Z" fill="white"/>
<path d="M159.132 23.9996V19.7275H162.019V20.173H159.614V23.9996H159.132Z" fill="white"/>
<path d="M162.887 23.9996V19.7275H164.486C165.45 19.7275 166.085 20.2401 166.085 21.0823V21.0945C166.085 22.0161 165.316 22.4921 164.407 22.4921H163.369V23.9996H162.887ZM163.369 22.0527H164.425C165.133 22.0527 165.597 21.6743 165.597 21.1129V21.1006C165.597 20.4903 165.139 20.173 164.45 20.173H163.369V22.0527Z" fill="white"/>
<path d="M166.168 23.9996L168.115 19.6969H168.567L170.514 23.9996H169.995L169.495 22.8705H167.169L166.663 23.9996H166.168ZM167.359 22.4372H169.305L168.335 20.2584L167.359 22.4372Z" fill="white"/>
<path d="M171.356 23.9996V19.7275H171.845L173.401 22.0588L174.957 19.7275H175.445V23.9996H174.963V20.5392L173.407 22.8278H173.383L171.826 20.5453V23.9996H171.356Z" fill="white"/>
<path d="M176.655 23.9996V19.7275H177.143L178.699 22.0588L180.256 19.7275H180.744V23.9996H180.262V20.5392L178.705 22.8278H178.681L177.125 20.5453V23.9996H176.655Z" fill="white"/>
<path d="M181.953 23.9996V19.7275H182.435V21.2715H183.54C184.498 21.2715 185.151 21.7476 185.151 22.602V22.6142C185.151 23.5113 184.425 23.9996 183.473 23.9996H181.953ZM182.435 23.5541H183.491C184.187 23.5541 184.663 23.2001 184.663 22.6325V22.6203C184.663 22.0283 184.205 21.7109 183.522 21.7109H182.435V23.5541ZM185.975 23.9996V19.7275H186.457V23.9996H185.975Z" fill="white"/>
<path d="M191.458 19.6969L193.362 23.9996H192.825L191.232 20.3378L189.645 23.9996H189.126L191.024 19.6969H191.458Z" fill="white"/>
<path d="M195.934 24.0728C194.634 24.0728 193.762 23.0536 193.762 21.8757V21.8635C193.762 20.6856 194.646 19.6542 195.946 19.6542C197.246 19.6542 198.119 20.6734 198.119 21.8513V21.8635C198.119 23.0414 197.234 24.0728 195.934 24.0728ZM195.946 23.6273C196.923 23.6273 197.619 22.8461 197.619 21.8757V21.8635C197.619 20.8931 196.911 20.0997 195.934 20.0997C194.958 20.0997 194.262 20.8809 194.262 21.8513V21.8635C194.262 22.8339 194.97 23.6273 195.946 23.6273Z" fill="white"/>
<path d="M202.34 19.7275V23.9996H201.858V22.3396H200.68L199.398 23.9996H198.806L200.143 22.2846C199.459 22.1687 198.959 21.7293 198.959 21.0213V21.0152C198.959 20.2157 199.581 19.7275 200.57 19.7275H202.34ZM201.858 20.173H200.534C199.844 20.173 199.447 20.5025 199.447 21.0213V21.0274C199.447 21.6133 199.935 21.9062 200.601 21.9062H201.858V20.173Z" fill="white"/>
<path d="M205.511 19.6969L207.416 23.9996H206.879L205.286 20.3378L203.699 23.9996H203.18L205.078 19.6969H205.511Z" fill="white"/>
<path d="M208.255 23.9996V19.7275H208.737V21.2715H209.842C210.8 21.2715 211.453 21.7476 211.453 22.602V22.6142C211.453 23.5113 210.726 23.9996 209.774 23.9996H208.255ZM208.737 23.5541H209.793C210.488 23.5541 210.964 23.2001 210.964 22.6325V22.6203C210.964 22.0283 210.507 21.7109 209.823 21.7109H208.737V23.5541Z" fill="white"/>
<path d="M212.337 23.9996V19.7275H212.819V21.6255H215.285V19.7275H215.767V23.9996H215.285V22.0771H212.819V23.9996H212.337Z" fill="white"/>
<path d="M218.958 24.0728C217.658 24.0728 216.785 23.0536 216.785 21.8757V21.8635C216.785 20.6856 217.67 19.6542 218.97 19.6542C220.27 19.6542 221.143 20.6734 221.143 21.8513V21.8635C221.143 23.0414 220.258 24.0728 218.958 24.0728ZM218.97 23.6273C219.946 23.6273 220.642 22.8461 220.642 21.8757V21.8635C220.642 20.8931 219.934 20.0997 218.958 20.0997C217.981 20.0997 217.285 20.8809 217.285 21.8513V21.8635C217.285 22.8339 217.993 23.6273 218.97 23.6273Z" fill="white"/>
<path d="M224.112 24.0728C222.88 24.0728 221.97 23.1024 221.97 21.8757V21.8635C221.97 20.6551 222.88 19.6542 224.131 19.6542C224.906 19.6542 225.376 19.9228 225.797 20.3317L225.467 20.6856C225.101 20.3439 224.711 20.0997 224.125 20.0997C223.179 20.0997 222.471 20.8687 222.471 21.8513V21.8635C222.471 22.8522 223.179 23.6273 224.125 23.6273C224.711 23.6273 225.095 23.4015 225.504 23.0109L225.821 23.3222C225.382 23.7738 224.881 24.0728 224.112 24.0728Z" fill="white"/>
<path d="M227.8 23.9996V20.173H226.359V19.7275H229.722V20.173H228.282V23.9996H227.8Z" fill="white"/>
<path d="M234.212 23.9996H233.73V20.4781L230.995 23.9996H230.599V19.7275H231.081V23.1696L233.754 19.7275H234.212V23.9996Z" fill="white"/>
<path d="M235.28 23.9996V23.3588H235.842V23.9996H235.28Z" fill="white"/>
<path d="M238.74 23.9996V19.7275H241.755V20.1669H239.216V21.5462H240.559C241.48 21.5462 242.115 21.9307 242.115 22.7302V22.7424C242.115 23.5968 241.389 23.9996 240.492 23.9996H238.74ZM239.216 23.5602H240.51C241.157 23.5602 241.633 23.2794 241.633 22.7607V22.7485C241.633 22.2114 241.169 21.9734 240.534 21.9734H239.216V23.5602Z" fill="white"/>
<path d="M245.009 24.0728C243.709 24.0728 242.836 23.0536 242.836 21.8757V21.8635C242.836 20.6856 243.721 19.6542 245.021 19.6542C246.321 19.6542 247.194 20.6734 247.194 21.8513V21.8635C247.194 23.0414 246.309 24.0728 245.009 24.0728ZM245.021 23.6273C245.998 23.6273 246.693 22.8461 246.693 21.8757V21.8635C246.693 20.8931 245.985 20.0997 245.009 20.0997C244.032 20.0997 243.337 20.8809 243.337 21.8513V21.8635C243.337 22.8339 244.045 23.6273 245.021 23.6273Z" fill="white"/>
<path d="M248.211 23.9996V19.7275H248.693V21.6255H251.158V19.7275H251.641V23.9996H251.158V22.0771H248.693V23.9996H248.211Z" fill="white"/>
<path d="M253.903 23.9996H253.366L254.251 22.5227L252.445 19.7275H253L254.52 22.1015L255.875 19.7275H256.424L253.903 23.9996Z" fill="white"/>
<path d="M258.794 24.0728C257.561 24.0728 256.652 23.1024 256.652 21.8757V21.8635C256.652 20.6551 257.561 19.6542 258.812 19.6542C259.587 19.6542 260.057 19.9228 260.478 20.3317L260.149 20.6856C259.782 20.3439 259.392 20.0997 258.806 20.0997C257.86 20.0997 257.152 20.8687 257.152 21.8513V21.8635C257.152 22.8522 257.86 23.6273 258.806 23.6273C259.392 23.6273 259.776 23.4015 260.185 23.0109L260.503 23.3222C260.063 23.7738 259.563 24.0728 258.794 24.0728Z" fill="white"/>
<path d="M261.37 23.9996V19.7275H261.852V21.2715H262.957C263.915 21.2715 264.568 21.7476 264.568 22.602V22.6142C264.568 23.5113 263.842 23.9996 262.89 23.9996H261.37ZM261.852 23.5541H262.908C263.604 23.5541 264.08 23.2001 264.08 22.6325V22.6203C264.08 22.0283 263.622 21.7109 262.939 21.7109H261.852V23.5541ZM265.392 23.9996V19.7275H265.874V23.9996H265.392Z" fill="white"/>
<path d="M22.0373 29.5541H22.4462L24.1429 25.6969H24.6494L26.3461 29.5541H26.755V30.8906H26.2911V29.9996H22.5011V30.8906H22.0373V29.5541ZM24.3931 26.2462L22.9528 29.5663H25.8212L24.3931 26.2462Z" fill="white"/>
<path d="M27.583 29.9996V25.7275H30.6712V26.1669H28.0652V27.6255H30.3965V28.0649H28.0652V29.5602H30.7017V29.9996H27.583Z" fill="white"/>
<path d="M33.4781 25.3735C32.9654 25.3735 32.6176 25.1172 32.5748 24.6777H32.941C33.0082 24.873 33.179 24.9951 33.4781 24.9951C33.7771 24.9951 33.948 24.873 34.0152 24.6777H34.3813C34.3386 25.1172 33.9907 25.3735 33.4781 25.3735ZM35.2846 29.9996H34.8025V26.4781L32.0683 29.9996H31.6716V25.7275H32.1537V29.1696L34.8269 25.7275H35.2846V29.9996Z" fill="white"/>
<path d="M38.4462 30.0728C37.2134 30.0728 36.304 29.1024 36.304 27.8757V27.8635C36.304 26.6551 37.2134 25.6542 38.4645 25.6542C39.2396 25.6542 39.7095 25.9228 40.1307 26.3317L39.8011 26.6856C39.4349 26.3439 39.0443 26.0997 38.4584 26.0997C37.5124 26.0997 36.8045 26.8687 36.8045 27.8513V27.8635C36.8045 28.8522 37.5124 29.6273 38.4584 29.6273C39.0443 29.6273 39.4288 29.4015 39.8377 29.0109L40.1551 29.3222C39.7156 29.7738 39.2152 30.0728 38.4462 30.0728Z" fill="white"/>
<path d="M42.1336 29.9996V26.173H40.6933V25.7275H44.0561V26.173H42.6157V29.9996H42.1336Z" fill="white"/>
<path d="M44.9326 29.9996V25.7275H46.7513C47.2396 25.7275 47.6241 25.8678 47.8682 26.1058C48.0513 26.295 48.1428 26.527 48.1428 26.7894V26.8016C48.1428 27.357 47.801 27.6438 47.4654 27.7903C47.9719 27.9368 48.3808 28.2419 48.3808 28.8217V28.8339C48.3808 29.5663 47.7644 29.9996 46.8307 29.9996H44.9326ZM47.6546 26.8687V26.8565C47.6546 26.4354 47.3189 26.1608 46.7086 26.1608H45.4086V27.6316H46.672C47.2579 27.6316 47.6546 27.3753 47.6546 26.8687ZM47.8926 28.8034V28.7912C47.8926 28.3274 47.5081 28.0588 46.7574 28.0588H45.4086V29.5663H46.8429C47.4959 29.5663 47.8926 29.2855 47.8926 28.8034Z" fill="white"/>
<path d="M52.9501 29.9996H52.4679V26.4781L49.7337 29.9996H49.3371V25.7275H49.8192V29.1696L52.4923 25.7275H52.9501V29.9996Z" fill="white"/>
<path d="M55.2695 29.9996V26.173H53.8291V25.7275H57.1919V26.173H55.7516V29.9996H55.2695Z" fill="white"/>
<path d="M58.0685 29.9996V25.7275H61.1566V26.1669H58.5506V27.6255H60.882V28.0649H58.5506V29.5602H61.1871V29.9996H58.0685Z" fill="white"/>
<path d="M64.1222 25.6969L66.0264 29.9996H65.4893L63.8964 26.3378L62.3096 29.9996H61.7908L63.6889 25.6969H64.1222Z" fill="white"/>
<path d="M66.8654 29.9996V25.7275H67.3476V27.2715H68.4522C69.4104 27.2715 70.0634 27.7476 70.0634 28.602V28.6142C70.0634 29.5113 69.3372 29.9996 68.3851 29.9996H66.8654ZM67.3476 29.5541H68.4034C69.0992 29.5541 69.5752 29.2001 69.5752 28.6325V28.6203C69.5752 28.0283 69.1175 27.7109 68.4339 27.7109H67.3476V29.5541Z" fill="white"/>
<path d="M70.948 29.9996V25.7275H71.4302V27.6255H73.8958V25.7275H74.378V29.9996H73.8958V28.0771H71.4302V29.9996H70.948Z" fill="white"/>
<path d="M75.5849 29.9996V25.7275H76.0671V27.2715H77.1717C78.1299 27.2715 78.7829 27.7476 78.7829 28.602V28.6142C78.7829 29.5113 78.0567 29.9996 77.1046 29.9996H75.5849ZM76.0671 29.5541H77.1229C77.8186 29.5541 78.2947 29.2001 78.2947 28.6325V28.6203C78.2947 28.0283 77.837 27.7109 77.1534 27.7109H76.0671V29.5541ZM79.6068 29.9996V25.7275H80.089V29.9996H79.6068Z" fill="white"/>
<path d="M82.746 29.5541H83.1549L84.8515 25.6969H85.3581L87.0547 29.5541H87.4636V30.8906H86.9998V29.9996H83.2098V30.8906H82.746V29.5541ZM85.1017 26.2462L83.6614 29.5663H86.5298L85.1017 26.2462Z" fill="white"/>
<path d="M90.001 30.0728C88.701 30.0728 87.8283 29.0536 87.8283 27.8757V27.8635C87.8283 26.6856 88.7133 25.6542 90.0132 25.6542C91.3132 25.6542 92.1859 26.6734 92.1859 27.8513V27.8635C92.1859 29.0414 91.3009 30.0728 90.001 30.0728ZM90.0132 29.6273C90.9897 29.6273 91.6854 28.8461 91.6854 27.8757V27.8635C91.6854 26.8931 90.9775 26.0997 90.001 26.0997C89.0245 26.0997 88.3288 26.8809 88.3288 27.8513V27.8635C88.3288 28.8339 89.0367 29.6273 90.0132 29.6273Z" fill="white"/>
<path d="M95.5207 29.9996V26.1974L94.7151 26.4476L94.5991 26.057L95.6427 25.6969H95.9967V29.9996H95.5207Z" fill="white"/>
<path d="M98.4648 30.0728C97.8545 30.0728 97.3296 29.786 96.939 29.3954L97.2564 29.0475C97.6287 29.4137 98.0315 29.6334 98.4709 29.6334C99.0812 29.6334 99.5023 29.2306 99.5023 28.6874V28.6752C99.5023 28.1382 99.0568 27.7781 98.4404 27.7781C98.0742 27.7781 97.7935 27.8818 97.5432 28.0222L97.2198 27.8086L97.3418 25.7275H99.8014V26.173H97.7629L97.6714 27.5401C97.9216 27.4241 98.1535 27.3509 98.5136 27.3509C99.3436 27.3509 99.9905 27.8452 99.9905 28.6569V28.6691C99.9905 29.5052 99.3619 30.0728 98.4648 30.0728Z" fill="white"/>
<path d="M102.408 29.5541H102.817L104.514 25.6969H105.02L106.717 29.5541H107.126V30.8906H106.662V29.9996H102.872V30.8906H102.408V29.5541ZM104.764 26.2462L103.323 29.5663H106.192L104.764 26.2462Z" fill="white"/>
<path d="M107.954 29.9996V25.7275H111.042V26.1669H108.436V27.6255H110.767V28.0649H108.436V29.5602H111.072V29.9996H107.954Z" fill="white"/>
<path d="M112.042 29.9996V25.7275H112.524V27.6011H113.22L115.002 25.7275H115.631L113.629 27.7842L115.722 29.9996H115.082L113.239 28.0344H112.524V29.9996H112.042Z" fill="white"/>
<path d="M115.961 29.9996L117.908 25.6969H118.36L120.307 29.9996H119.788L119.288 28.8705H116.962L116.456 29.9996H115.961ZM117.151 28.4372H119.098L118.128 26.2584L117.151 28.4372Z" fill="white"/>
<path d="M121.149 29.9996V25.7275H124.164V26.1669H121.625V27.5462H122.968C123.889 27.5462 124.524 27.9307 124.524 28.7302V28.7424C124.524 29.5968 123.798 29.9996 122.901 29.9996H121.149ZM121.625 29.5602H122.919C123.566 29.5602 124.042 29.2794 124.042 28.7607V28.7485C124.042 28.2114 123.578 27.9734 122.943 27.9734H121.625V29.5602Z" fill="white"/>
<path d="M125.434 29.9996V25.7275H127.033C127.998 25.7275 128.632 26.2401 128.632 27.0823V27.0945C128.632 28.0161 127.863 28.4921 126.954 28.4921H125.917V29.9996H125.434ZM125.917 28.0527H126.972C127.68 28.0527 128.144 27.6743 128.144 27.1129V27.1006C128.144 26.4903 127.686 26.173 126.997 26.173H125.917V28.0527Z" fill="white"/>
<path d="M132.715 25.7275V29.9996H132.233V28.3396H131.055L129.774 29.9996H129.182L130.518 28.2846C129.835 28.1687 129.334 27.7293 129.334 27.0213V27.0152C129.334 26.2157 129.957 25.7275 130.945 25.7275H132.715ZM132.233 26.173H130.909C130.219 26.173 129.822 26.5025 129.822 27.0213V27.0274C129.822 27.6133 130.311 27.9062 130.976 27.9062H132.233V26.173Z" fill="white"/>
<path d="M135.44 29.9996V29.6273L136.99 28.2602C137.643 27.6743 137.881 27.3448 137.881 26.9176C137.881 26.4171 137.484 26.0997 137.021 26.0997C136.532 26.0997 136.215 26.35 135.873 26.8321L135.519 26.5758C135.916 26.0021 136.301 25.6664 137.057 25.6664C137.826 25.6664 138.382 26.1791 138.382 26.8748V26.887C138.382 27.5095 138.052 27.894 137.301 28.5471L136.16 29.5602H138.424V29.9996H135.44Z" fill="white"/>
<path d="M140.979 30.0728C139.875 30.0728 139.179 29.0719 139.179 27.8757V27.8635C139.179 26.6673 139.893 25.6542 140.992 25.6542C142.09 25.6542 142.786 26.6551 142.786 27.8513V27.8635C142.786 29.0597 142.078 30.0728 140.979 30.0728ZM140.992 29.6334C141.797 29.6334 142.285 28.8095 142.285 27.8757V27.8635C142.285 26.9359 141.779 26.0936 140.979 26.0936C140.18 26.0936 139.679 26.9115 139.679 27.8513V27.8635C139.679 28.7912 140.186 29.6334 140.992 29.6334Z" fill="white"/>
<path d="M143.397 29.9996V29.6273L144.947 28.2602C145.6 27.6743 145.838 27.3448 145.838 26.9176C145.838 26.4171 145.441 26.0997 144.977 26.0997C144.489 26.0997 144.172 26.35 143.83 26.8321L143.476 26.5758C143.873 26.0021 144.257 25.6664 145.014 25.6664C145.783 25.6664 146.338 26.1791 146.338 26.8748V26.887C146.338 27.5095 146.009 27.894 145.258 28.5471L144.117 29.5602H146.381V29.9996H143.397Z" fill="white"/>
<path d="M148.655 30.0728C147.941 30.0728 147.41 29.7677 147.062 29.3099L147.41 28.9987C147.746 29.4076 148.13 29.6334 148.661 29.6334C149.18 29.6334 149.595 29.3099 149.595 28.8034V28.7912C149.595 28.2602 149.101 27.9673 148.399 27.9673H148.124L148.027 27.6804L149.375 26.1608H147.288V25.7275H150.016V26.0814L148.673 27.5706C149.418 27.6377 150.083 27.9856 150.083 28.7729V28.7851C150.083 29.548 149.449 30.0728 148.655 30.0728Z" fill="white"/>
<path d="M152.934 29.9996V25.7275H155.821V26.173H153.416V29.9996H152.934Z" fill="white"/>
<path d="M158.392 30.0728C157.092 30.0728 156.219 29.0536 156.219 27.8757V27.8635C156.219 26.6856 157.104 25.6542 158.404 25.6542C159.704 25.6542 160.577 26.6734 160.577 27.8513V27.8635C160.577 29.0414 159.692 30.0728 158.392 30.0728ZM158.404 29.6273C159.381 29.6273 160.077 28.8461 160.077 27.8757V27.8635C160.077 26.8931 159.369 26.0997 158.392 26.0997C157.416 26.0997 156.72 26.8809 156.72 27.8513V27.8635C156.72 28.8339 157.428 29.6273 158.404 29.6273Z" fill="white"/>
<path d="M160.935 29.5541H161.344L163.041 25.6969H163.547L165.244 29.5541H165.653V30.8906H165.189V29.9996H161.399V30.8906H160.935V29.5541ZM163.291 26.2462L161.851 29.5663H164.719L163.291 26.2462Z" fill="white"/>
<path d="M166.031 29.9996L167.978 25.6969H168.43L170.377 29.9996H169.858L169.358 28.8705H167.032L166.526 29.9996H166.031ZM167.221 28.4372H169.168L168.198 26.2584L167.221 28.4372Z" fill="white"/>
<path d="M171.079 29.9996V29.3588H171.64V29.9996H171.079Z" fill="white"/>
<path d="M174.539 29.9996V25.7275H177.963V29.9996H177.481V26.173H175.021V29.9996H174.539Z" fill="white"/>
<path d="M181.153 30.0728C179.853 30.0728 178.981 29.0536 178.981 27.8757V27.8635C178.981 26.6856 179.866 25.6542 181.166 25.6542C182.466 25.6542 183.338 26.6734 183.338 27.8513V27.8635C183.338 29.0414 182.453 30.0728 181.153 30.0728ZM181.166 29.6273C182.142 29.6273 182.838 28.8461 182.838 27.8757V27.8635C182.838 26.8931 182.13 26.0997 181.153 26.0997C180.177 26.0997 179.481 26.8809 179.481 27.8513V27.8635C179.481 28.8339 180.189 29.6273 181.166 29.6273Z" fill="white"/>
<path d="M183.697 29.5541H184.105L185.802 25.6969H186.309L188.005 29.5541H188.414V30.8906H187.95V29.9996H184.16V30.8906H183.697V29.5541ZM186.052 26.2462L184.612 29.5663H187.48L186.052 26.2462Z" fill="white"/>
<path d="M189.242 29.9996V25.7275H190.841C191.806 25.7275 192.44 26.2401 192.44 27.0823V27.0945C192.44 28.0161 191.671 28.4921 190.762 28.4921H189.724V29.9996H189.242ZM189.724 28.0527H190.78C191.488 28.0527 191.952 27.6743 191.952 27.1129V27.1006C191.952 26.4903 191.494 26.173 190.805 26.173H189.724V28.0527Z" fill="white"/>
<path d="M195.302 30.0728C194.002 30.0728 193.13 29.0536 193.13 27.8757V27.8635C193.13 26.6856 194.015 25.6542 195.315 25.6542C196.615 25.6542 197.487 26.6734 197.487 27.8513V27.8635C197.487 29.0414 196.602 30.0728 195.302 30.0728ZM195.315 29.6273C196.291 29.6273 196.987 28.8461 196.987 27.8757V27.8635C196.987 26.8931 196.279 26.0997 195.302 26.0997C194.326 26.0997 193.63 26.8809 193.63 27.8513V27.8635C193.63 28.8339 194.338 29.6273 195.315 29.6273Z" fill="white"/>
<path d="M198.504 29.9996V25.7275H201.519V26.1669H198.98V27.5462H200.323C201.244 27.5462 201.879 27.9307 201.879 28.7302V28.7424C201.879 29.5968 201.153 29.9996 200.256 29.9996H198.504ZM198.98 29.5602H200.274C200.921 29.5602 201.397 29.2794 201.397 28.7607V28.7485C201.397 28.2114 200.933 27.9734 200.298 27.9734H198.98V29.5602Z" fill="white"/>
<path d="M202.789 29.9996V25.7275H203.272V27.6255H205.737V25.7275H206.219V29.9996H205.737V28.0771H203.272V29.9996H202.789Z" fill="white"/>
<path d="M209.41 30.0728C208.11 30.0728 207.237 29.0536 207.237 27.8757V27.8635C207.237 26.6856 208.122 25.6542 209.422 25.6542C210.722 25.6542 211.595 26.6734 211.595 27.8513V27.8635C211.595 29.0414 210.71 30.0728 209.41 30.0728ZM209.422 29.6273C210.398 29.6273 211.094 28.8461 211.094 27.8757V27.8635C211.094 26.8931 210.386 26.0997 209.41 26.0997C208.433 26.0997 207.738 26.8809 207.738 27.8513V27.8635C207.738 28.8339 208.445 29.6273 209.422 29.6273Z" fill="white"/>
<path d="M214.564 30.0728C213.332 30.0728 212.422 29.1024 212.422 27.8757V27.8635C212.422 26.6551 213.332 25.6542 214.583 25.6542C215.358 25.6542 215.828 25.9228 216.249 26.3317L215.919 26.6856C215.553 26.3439 215.163 26.0997 214.577 26.0997C213.631 26.0997 212.923 26.8687 212.923 27.8513V27.8635C212.923 28.8522 213.631 29.6273 214.577 29.6273C215.163 29.6273 215.547 29.4015 215.956 29.0109L216.273 29.3222C215.834 29.7738 215.333 30.0728 214.564 30.0728Z" fill="white"/>
<path d="M218.252 29.9996V26.173H216.812V25.7275H220.174V26.173H218.734V29.9996H218.252Z" fill="white"/>
<path d="M224.664 29.9996H224.182V26.4781L221.448 29.9996H221.051V25.7275H221.533V29.1696L224.206 25.7275H224.664V29.9996Z" fill="white"/>
<path d="M227.702 29.9996V25.7275H228.184V27.6255H230.65V25.7275H231.132V29.9996H230.65V28.0771H228.184V29.9996H227.702Z" fill="white"/>
<path d="M231.973 29.9996L233.92 25.6969H234.371L236.318 29.9996H235.8L235.299 28.8705H232.974L232.467 29.9996H231.973ZM233.163 28.4372H235.11L234.14 26.2584L233.163 28.4372Z" fill="white"/>
<path d="M238.99 29.9996V25.7275H239.473V29.5541H241.877V29.9996H238.99Z" fill="white"/>
<path d="M242.745 29.9996V25.7275H245.833V26.1669H243.227V27.6255H245.559V28.0649H243.227V29.5602H245.864V29.9996H242.745Z" fill="white"/>
<path d="M247.921 29.9996V26.173H246.48V25.7275H249.843V26.173H248.403V29.9996H247.921Z" fill="white"/>
<path d="M252.429 30.0667C251.373 30.0667 250.653 29.4198 250.653 28.2114V25.7275H251.135V28.1809C251.135 29.1085 251.617 29.6212 252.441 29.6212C253.228 29.6212 253.729 29.1452 253.729 28.2114V25.7275H254.211V28.1748C254.211 29.4259 253.497 30.0667 252.429 30.0667Z" fill="white"/>
<path d="M255.121 29.9996V29.3588H255.682V29.9996H255.121Z" fill="white"/>
<path d="M256.751 29.9996V25.7275H258.588C259.119 25.7275 259.534 25.8861 259.803 26.1547C260.016 26.3683 260.132 26.6551 260.132 26.9969V27.0091C260.132 27.7171 259.644 28.1382 258.973 28.2541L260.285 29.9996H259.693L258.454 28.3396H257.233V29.9996H256.751ZM257.233 27.9062H258.546C259.18 27.9062 259.644 27.5767 259.644 27.0274V27.0152C259.644 26.4842 259.241 26.173 258.552 26.173H257.233V27.9062Z" fill="white"/>
<path d="M262.871 30.0667C261.815 30.0667 261.095 29.4198 261.095 28.2114V25.7275H261.577V28.1809C261.577 29.1085 262.059 29.6212 262.883 29.6212C263.67 29.6212 264.171 29.1452 264.171 28.2114V25.7275H264.653V28.1748C264.653 29.4259 263.939 30.0667 262.871 30.0667Z" fill="white"/>
</svg>
