<svg width="3424" height="121" viewBox="0 0 3424 121" fill="none" xmlns="http://www.w3.org/2000/svg">
<path fill-rule="evenodd" clip-rule="evenodd" d="M3423.02 115.492H3422.62C3358.96 115.492 3322.3 105.051 3267.14 105.051H3267C3207.77 105.092 3172.96 115.492 3111.77 115.492H3111.37C3047.74 115.492 3011.1 105.051 2955.97 105.051H2955.82C2896.58 105.092 2861.77 115.492 2800.57 115.492H2800.46C2736.78 115.492 2700.12 105.051 2644.96 105.051H2644.81C2585.58 105.092 2550.77 115.492 2489.57 115.492H2489.4C2425.72 115.492 2389.07 105.051 2333.9 105.051H2333.75C2274.56 105.092 2239.73 115.492 2178.57 115.492C2117.4 115.492 2078.27 105.051 2023.11 105.051H2022.96C1963.73 105.092 1928.92 115.492 1867.73 115.492H1867.53C1803.88 115.492 1767.23 105.051 1712.09 105.051H1711.95C1652.74 105.092 1617.91 115.492 1556.72 115.492H1556.33C1492.64 115.492 1455.99 105.051 1400.84 105.051H1400.69C1341.45 105.092 1306.65 115.492 1245.45 115.492C1184.26 115.492 1145.1 105.051 1089.94 105.051H1089.79C1030.56 105.092 995.749 115.492 934.568 115.492H934.184C870.506 115.492 833.858 105.051 778.701 105.051H778.55C719.318 105.092 684.509 115.492 623.315 115.492H622.931C559.308 115.492 522.646 105.051 467.516 105.051H467.365C408.133 105.092 373.324 115.492 312.13 115.492H312.02C248.342 115.492 211.694 105.051 156.537 105.051H156.386C97.1542 105.092 62.3448 115.492 1.13691 115.492H0.944824V14.9473H1.1918C62.3997 14.9473 97.2091 4.54702 156.441 4.50586H156.592C211.749 4.50586 248.397 14.9473 312.075 14.9473H312.185C373.379 14.9473 408.202 4.54702 467.42 4.50586H467.571C522.701 4.50586 559.363 14.9473 622.985 14.9473H623.37C684.578 14.9473 719.387 4.54702 778.605 4.50586H778.756C833.913 4.50586 870.561 14.9473 934.239 14.9473H934.623C995.817 14.9473 1030.63 4.54702 1089.85 4.50586H1090C1145.15 4.50586 1181.83 14.9473 1245.51 14.9473C1309.18 14.9473 1341.52 4.54702 1400.74 4.50586H1400.89C1456.05 4.50586 1492.7 14.9473 1556.39 14.9473H1556.77C1617.97 14.9473 1652.79 4.54702 1712.01 4.50586H1712.15C1767.29 4.50586 1803.95 14.9473 1867.59 14.9473H1867.78C1928.97 14.9473 1963.8 4.54702 2023.02 4.50586H2023.17C2078.32 4.50586 2114.97 14.9473 2178.62 14.9473C2242.27 14.9473 2274.61 4.54702 2333.8 4.50586H2333.95C2389.12 4.50586 2425.77 14.9473 2489.45 14.9473H2489.63C2550.84 14.9473 2585.65 4.54702 2644.86 4.50586H2645.02C2700.17 4.50586 2736.83 14.9473 2800.51 14.9473H2800.62C2861.83 14.9473 2896.64 4.54702 2955.87 4.50586H2956.02C3011.15 4.50586 3047.8 14.9473 3111.42 14.9473H3111.82C3173.01 14.9473 3207.84 4.54702 3267.06 4.50586H3267.19C3322.36 4.50586 3359.01 14.9473 3422.68 14.9473H3423.07V115.492H3423.02Z" fill="white"/>
<path fill-rule="evenodd" clip-rule="evenodd" d="M1578.25 44.0756L1577.81 44.3774L1583.12 51.4299L1583.53 51.0868C1586.53 48.5622 1591.75 46.8609 1599.46 46.8609C1610.13 46.8609 1615.98 50.099 1617.87 54.2975H1598.95V62.1869H1617.17C1614.74 65.7542 1609.04 68.3749 1599.46 68.3749C1591.76 68.3749 1586.56 66.6735 1583.56 64.1489L1583.14 63.8059L1577.82 70.8858L1578.26 71.1876C1583.03 74.3708 1590.06 76.2917 1599.46 76.2917C1608.86 76.2917 1616.35 74.2473 1621.12 70.8858C1625.91 67.5105 1628.24 62.818 1628.24 57.659C1628.24 52.5001 1625.9 47.7939 1621.11 44.4323C1616.33 41.0707 1609.15 39.0264 1599.46 39.0264C1589.77 39.0264 1583.01 40.9473 1578.23 44.1305L1578.25 44.0756ZM1510.42 74.6727L1510.59 74.0415C1513.55 62.6945 1517.49 54.3249 1522.61 48.768C1527.74 43.1975 1534.04 40.4945 1541.64 40.4945C1549.24 40.4945 1555.54 43.1975 1560.67 48.768C1565.79 54.3112 1569.73 62.7082 1572.69 74.0552L1572.85 74.6864H1563.17L1563.07 74.3159C1559.97 63.3257 1556.28 57.1788 1552.55 53.7761C1548.84 50.3871 1545.04 49.6873 1541.63 49.6873C1538.21 49.6873 1534.42 50.4008 1530.72 53.7761C1526.99 57.1788 1523.28 63.3257 1520.19 74.3022L1520.08 74.6727H1510.4H1510.42ZM1795.98 74.6727L1796.14 74.0415C1799.12 62.6945 1803.05 54.3112 1808.16 48.7543C1813.31 43.1837 1819.61 40.4808 1827.19 40.4808C1834.78 40.4808 1841.09 43.1837 1846.22 48.7543C1851.34 54.3112 1855.28 62.6945 1858.24 74.0415L1858.41 74.6727H1848.72L1848.61 74.3022C1845.52 63.312 1841.82 57.1651 1838.09 53.7624C1834.38 50.3734 1830.6 49.6736 1827.18 49.6736C1823.76 49.6736 1819.98 50.3871 1816.27 53.7624C1812.54 57.1651 1808.84 63.312 1805.73 74.3022L1805.64 74.6727H1795.95H1795.98ZM1630.76 48.3839V40.4945H1681.23V48.3839H1660.82V74.659H1651.17V48.3839H1630.76V48.3839ZM1780.46 54.2426C1780.41 52.8294 1780.16 51.7729 1779.78 50.9908C1779.36 50.1264 1778.76 49.5501 1778.05 49.1659C1777.32 48.7818 1776.44 48.576 1775.47 48.4662C1774.48 48.3564 1773.42 48.3564 1772.35 48.3564H1743.84V40.467H1772.86C1774.85 40.4808 1776.85 40.5082 1778.75 40.7003C1780.8 40.9198 1782.77 41.3589 1784.47 42.2644C1786.17 43.17 1787.61 44.5421 1788.6 46.5727C1789.59 48.5897 1790.13 51.2652 1790.13 54.7503V74.6452H1757.23C1752.98 74.6452 1748.57 74.6452 1745.24 73.3967C1743.55 72.7655 1742.1 71.8051 1741.08 70.3369C1740.07 68.8688 1739.52 66.9342 1739.52 64.4508C1739.52 61.9673 1740.08 60.019 1741.08 58.5646C1742.1 57.0965 1743.55 56.136 1745.24 55.5049C1748.57 54.2563 1752.97 54.2563 1757.23 54.2563H1780.48L1780.46 54.2426ZM1757.29 66.7833H1780.46V62.1594H1757.29C1755.11 62.1594 1753.02 62.1594 1751.46 62.5024C1750.67 62.6671 1750.11 62.9141 1749.73 63.2296C1749.37 63.5315 1749.16 63.9157 1749.16 64.4782C1749.16 65.0408 1749.37 65.4249 1749.73 65.7268C1750.11 66.0424 1750.69 66.2893 1751.46 66.454C1753.02 66.797 1755.11 66.797 1757.29 66.797V66.7833ZM1896.61 54.2563H1873.94V40.4945H1864.29V74.659H1897.2C1901.45 74.659 1905.85 74.659 1909.19 73.4104C1910.88 72.7792 1912.33 71.8188 1913.33 70.3507C1914.35 68.8826 1914.91 66.9479 1914.91 64.4645C1914.91 61.9811 1914.35 60.0327 1913.33 58.5783C1912.32 57.1102 1910.88 56.1498 1909.19 55.5186C1905.85 54.27 1901.46 54.27 1897.2 54.27H1896.61V54.2563ZM1897.11 66.7833H1873.94V62.1594H1897.11C1899.3 62.1594 1901.4 62.1594 1902.95 62.5024C1903.73 62.6671 1904.3 62.9141 1904.69 63.2296C1905.05 63.5315 1905.25 63.9157 1905.25 64.4782C1905.25 65.0408 1905.05 65.4249 1904.69 65.7268C1904.3 66.0424 1903.73 66.2893 1902.95 66.454C1901.4 66.797 1899.31 66.797 1897.11 66.797V66.7833ZM1686.82 40.4945L1706.77 70.5565L1695.63 87.3369H1707.14L1738.23 40.4808H1726.72L1712.2 62.3378L1697.7 40.4808H1686.8L1686.82 40.4945Z" fill="#0921FF"/>
<path d="M3423.02 19.5842H3422.62C3389.4 19.5842 3363.59 16.7715 3338.62 14.0548C3315.41 11.5302 3293.48 9.1428 3267.12 9.1428H3266.99C3237.93 9.17024 3215.29 11.64 3191.32 14.2881C3167.51 16.9087 3142.9 19.598 3111.75 19.598H3111.35C3078.18 19.598 3052.38 16.7852 3027.44 14.0685C3004.22 11.5439 2982.3 9.15652 2955.95 9.15652H2955.8C2926.74 9.18397 2904.1 11.6537 2880.13 14.3018C2856.33 16.9224 2831.71 19.6117 2800.55 19.6117C2767.21 19.6117 2741.4 16.7989 2716.42 14.0822C2693.2 11.5576 2671.29 9.17024 2644.95 9.17024H2644.8C2615.73 9.18397 2593.1 11.6674 2569.13 14.3155C2545.32 16.9361 2520.71 19.6254 2489.56 19.6254H2489.38C2456.15 19.6254 2430.33 16.8127 2405.37 14.096C2382.15 11.5576 2360.24 9.18397 2333.88 9.18397H2333.73C2304.69 9.19769 2282.06 11.6811 2258.09 14.3292C2234.3 16.9499 2209.69 19.6391 2178.54 19.6391C2145.32 19.6391 2119.51 16.8264 2094.57 14.1097C2071.35 11.5851 2049.44 9.19769 2023.08 9.19769H2022.93C1993.87 9.22513 1971.23 11.6948 1947.26 14.3429C1923.46 16.9636 1898.84 19.6528 1867.7 19.6528H1867.51C1834.3 19.6528 1808.49 16.8401 1783.53 14.1234C1760.32 11.5988 1738.41 9.21141 1712.06 9.21141H1711.93C1682.87 9.23885 1660.23 11.7086 1636.27 14.3567C1612.47 16.9773 1587.85 19.6666 1556.69 19.6666H1556.31C1523.06 19.6666 1497.24 16.8538 1472.27 14.1371C1449.05 11.6125 1427.14 9.22513 1400.81 9.22513H1400.66C1371.6 9.25257 1348.96 11.7223 1324.99 14.3704C1301.18 16.991 1276.57 19.6803 1245.41 19.6803C1212.18 19.6803 1186.36 16.8675 1161.37 14.1509C1138.16 11.6262 1116.24 9.23885 1089.9 9.23885H1089.75C1060.69 9.26629 1038.05 11.736 1014.08 14.3841C990.288 17.0048 965.673 19.694 934.513 19.694H934.129C900.912 19.694 875.089 16.8813 850.131 14.1646C826.916 11.64 804.99 9.25257 778.647 9.25257H778.496C749.435 9.26629 726.796 11.7497 702.84 14.3978C679.034 17.0185 654.42 19.7077 623.26 19.7077H622.876C589.699 19.7077 563.904 16.895 538.946 14.1783C515.731 11.6537 493.805 9.26629 467.462 9.26629H467.311C438.25 9.28001 415.611 11.7635 391.641 14.4115C367.836 17.0322 343.221 19.7214 312.075 19.7214H311.965C278.734 19.7214 252.911 16.9087 227.94 14.192C204.724 11.6674 182.813 9.28001 156.483 9.28001H156.332C127.271 9.30745 104.632 11.7772 80.6621 14.4253C56.8567 17.0459 32.2418 19.7352 1.08218 19.7352H0.903809V10.46H1.19194C31.8439 10.46 56.1981 7.79818 79.7702 5.20497C102.931 2.66665 126.887 0.0322754 156.441 0.0185547H156.592C183.43 0.0185547 205.603 2.43339 229.051 4.99916C253.776 7.68841 279.351 10.4737 312.075 10.4737H312.185C342.837 10.4737 367.191 7.8119 390.749 5.21869C413.91 2.68037 437.866 0.0459964 467.42 0.0322757H467.571C494.423 0.0322757 516.582 2.44711 540.071 5.01288C564.769 7.70213 590.317 10.4874 622.985 10.4874H623.37C654.022 10.4874 678.376 7.82562 701.934 5.23241C725.095 2.69409 749.037 0.0597173 778.605 0.0459967H778.756C805.608 0.0459967 827.767 2.46083 851.243 5.0266C875.954 7.71585 901.529 10.5011 934.239 10.5011H934.623C965.275 10.5011 989.629 7.83934 1013.17 5.24613C1036.33 2.70781 1060.28 0.0734383 1089.85 0.0597177H1090C1116.83 0.0597177 1139.01 2.47456 1162.47 5.04032C1187.19 7.72957 1212.77 10.5149 1245.51 10.5149C1276.16 10.5149 1300.51 7.85306 1324.07 5.25985C1347.23 2.72153 1371.17 0.087158 1400.74 0.0734373H1400.89C1427.73 0.0734373 1449.9 2.48828 1473.35 5.05404C1498.08 7.74329 1523.65 10.5286 1556.39 10.5286H1556.77C1587.43 10.5286 1611.78 7.86678 1635.34 5.27357C1658.5 2.73525 1682.45 0.100879 1712.01 0.0871583H1712.15C1739 0.0871583 1761.16 2.502 1784.63 5.06776C1809.34 7.75702 1834.89 10.5423 1867.6 10.5423H1867.79C1898.45 10.5423 1922.8 7.8805 1946.36 5.28729C1969.52 2.74897 1993.47 0.1146 2023.03 0.100879H2023.18C2050.03 0.100879 2072.19 2.51572 2095.67 5.08148C2120.38 7.77074 2145.93 10.556 2178.64 10.556C2209.27 10.556 2233.63 7.89422 2257.17 5.30101C2280.32 2.76269 2304.26 0.128321 2333.82 0.1146H2333.97C2360.82 0.1146 2382.98 2.52944 2406.45 5.09521C2431.18 7.78446 2456.74 10.5698 2489.46 10.5698H2489.64C2520.29 10.5698 2544.65 7.90794 2568.21 5.31474C2591.37 2.77641 2615.31 0.142041 2644.88 0.12832H2645.03C2671.87 0.12832 2694.04 2.54316 2717.5 5.10893C2742.23 7.79818 2767.8 10.5835 2800.53 10.5835C2831.27 10.5835 2855.64 7.92166 2879.2 5.32846C2902.36 2.79013 2926.3 0.155762 2955.87 0.142041H2956.02C2982.87 0.142041 3005.03 2.55688 3028.51 5.12265C3053.21 7.8119 3078.74 10.5972 3111.42 10.5972H3111.82C3142.47 10.5972 3166.83 7.93539 3190.38 5.34218C3213.54 2.80385 3237.5 0.169483 3267.06 0.155762H3267.19C3294.04 0.155762 3316.22 2.5706 3339.69 5.13637C3364.4 7.82562 3389.97 10.6109 3422.69 10.6109H3423.09V19.8861L3423.11 19.6528L3423.02 19.5842Z" fill="#EAC162"/>
<path d="M3423.02 120.13H3422.62C3389.4 120.13 3363.59 117.317 3338.62 114.601C3315.41 112.076 3293.48 109.689 3267.12 109.689H3266.99C3237.93 109.716 3215.29 112.186 3191.32 114.834C3167.51 117.455 3142.9 120.144 3111.75 120.144H3111.35C3078.18 120.144 3052.38 117.331 3027.44 114.614C3004.22 112.09 2982.3 109.702 2955.95 109.702H2955.8C2926.74 109.73 2904.1 112.2 2880.13 114.848C2856.33 117.468 2831.71 120.158 2800.55 120.158C2767.21 120.158 2741.4 117.345 2716.42 114.628C2693.2 112.104 2671.29 109.716 2644.95 109.716H2644.8C2615.73 109.744 2593.1 112.213 2569.13 114.861C2545.32 117.482 2520.71 120.171 2489.56 120.171H2489.38C2456.15 120.171 2430.33 117.359 2405.37 114.642C2382.15 112.104 2360.24 109.73 2333.88 109.73H2333.73C2304.69 109.744 2282.06 112.227 2258.09 114.875C2234.3 117.496 2209.69 120.185 2178.54 120.185C2145.32 120.185 2119.51 117.372 2094.57 114.656C2071.35 112.131 2049.44 109.744 2023.08 109.744H2022.93C1993.87 109.757 1971.23 112.241 1947.26 114.889C1923.46 117.509 1898.84 120.199 1867.7 120.199H1867.51C1834.3 120.199 1808.49 117.386 1783.53 114.669C1760.32 112.145 1738.41 109.757 1712.06 109.757H1711.93C1682.87 109.785 1660.23 112.254 1636.27 114.903C1612.47 117.523 1587.85 120.212 1556.69 120.212H1556.31C1523.06 120.212 1497.24 117.4 1472.27 114.683C1449.05 112.158 1427.14 109.771 1400.81 109.771H1400.66C1371.6 109.798 1348.96 112.268 1324.99 114.916C1301.18 117.537 1276.57 120.226 1245.41 120.226C1212.18 120.226 1186.36 117.413 1161.37 114.697C1138.16 112.172 1116.24 109.785 1089.9 109.785H1089.75C1060.69 109.812 1038.05 112.282 1014.08 114.93C990.288 117.551 965.673 120.24 934.513 120.24H934.129C900.912 120.24 875.089 117.427 850.131 114.71C826.916 112.186 804.99 109.798 778.647 109.798H778.496C749.435 109.826 726.796 112.296 702.84 114.944C679.034 117.564 654.42 120.254 623.26 120.254H622.876C589.699 120.254 563.904 117.441 538.946 114.724C515.731 112.2 493.805 109.812 467.462 109.812H467.311C438.25 109.826 415.611 112.309 391.641 114.957C367.836 117.578 343.221 120.267 312.075 120.267H311.965C278.734 120.267 252.911 117.455 227.94 114.738C204.724 112.213 182.813 109.826 156.483 109.826H156.332C127.271 109.84 104.632 112.323 80.6621 114.971C56.8567 117.592 32.2418 120.281 1.08218 120.281H0.903809V111.006H1.19194C31.8439 111.006 56.1981 108.344 79.7702 105.751C102.931 103.213 126.887 100.578 156.441 100.564H156.592C183.43 100.564 205.603 102.979 229.051 105.545C253.776 108.234 279.351 111.02 312.075 111.02H312.185C342.837 111.02 367.191 108.358 390.749 105.765C413.91 103.226 437.866 100.592 467.42 100.578H467.571C494.423 100.578 516.582 102.993 540.071 105.559C564.769 108.248 590.317 111.033 622.985 111.033H623.37C654.022 111.033 678.376 108.372 701.934 105.778C725.095 103.24 749.037 100.606 778.605 100.592H778.756C805.608 100.592 827.767 103.007 851.243 105.573C875.954 108.262 901.529 111.047 934.239 111.047H934.623C965.275 111.047 989.629 108.385 1013.17 105.792C1036.33 103.254 1060.28 100.619 1089.85 100.606H1090C1116.83 100.606 1139.01 103.02 1162.47 105.586C1187.19 108.275 1212.77 111.061 1245.51 111.061C1276.16 111.061 1300.51 108.399 1324.07 105.806C1347.23 103.267 1371.17 100.633 1400.74 100.619H1400.89C1427.73 100.619 1449.9 103.034 1473.35 105.6C1498.08 108.289 1523.65 111.074 1556.39 111.074H1556.77C1587.43 111.074 1611.78 108.413 1635.34 105.819C1658.5 103.281 1682.45 100.647 1712.01 100.633H1712.15C1739 100.633 1761.16 103.048 1784.63 105.614C1809.34 108.303 1834.89 111.088 1867.6 111.088H1867.79C1898.45 111.088 1922.8 108.426 1946.36 105.833C1969.52 103.295 1993.47 100.661 2023.03 100.647H2023.18C2050.03 100.647 2072.19 103.062 2095.67 105.627C2120.38 108.317 2145.93 111.102 2178.64 111.102C2209.27 111.102 2233.63 108.44 2257.17 105.847C2280.32 103.309 2304.26 100.674 2333.82 100.66H2333.97C2360.82 100.66 2382.98 103.075 2406.45 105.641C2431.18 108.33 2456.74 111.116 2489.46 111.116H2489.64C2520.29 111.116 2544.65 108.454 2568.21 105.861C2591.37 103.322 2615.31 100.688 2644.88 100.674H2645.03C2671.87 100.674 2694.04 103.089 2717.5 105.655C2742.23 108.344 2767.8 111.129 2800.53 111.129C2831.27 111.129 2855.64 108.468 2879.2 105.874C2902.36 103.336 2926.3 100.702 2955.87 100.688H2956.02C2982.87 100.688 3005.03 103.103 3028.51 105.669C3053.21 108.358 3078.74 111.143 3111.42 111.143H3111.82C3142.47 111.143 3166.83 108.481 3190.38 105.888C3213.54 103.35 3237.5 100.715 3267.06 100.702H3267.19C3294.04 100.702 3316.22 103.117 3339.69 105.682C3364.4 108.372 3389.97 111.157 3422.69 111.157H3423.09V120.432L3423.11 120.199L3423.02 120.13Z" fill="#EAC162"/>
<path d="M996.819 43.8291H1004.38V64.4787H1017.59V71.1195H996.805V43.8428L996.819 43.8291Z" fill="#0921FF"/>
<path d="M1023.73 43.8291H1045.66V50.2229H1031.22V54.394H1044.32V60.3488H1031.22V64.6845H1045.88V71.1058H1023.73V43.8291V43.8291Z" fill="#0921FF"/>
<path d="M1059.41 50.4699H1051.21V43.8291H1075.11V50.4699H1066.92V71.1195H1059.43V50.4699H1059.41Z" fill="#0921FF"/>
<path d="M1081.08 59.1551V43.8291H1088.68V58.9904C1088.68 62.9283 1090.67 64.7943 1093.67 64.7943C1096.68 64.7943 1098.75 62.9969 1098.75 59.1825V43.8291H1106.39V58.9493C1106.39 67.6894 1101.4 71.6135 1093.6 71.6135C1085.81 71.6135 1081.09 67.6756 1081.09 59.1551H1081.08Z" fill="#0921FF"/>
<path d="M1112.54 63.5039H1120.21V71.1052H1112.54V63.5039V63.5039Z" fill="#0921FF"/>
<path d="M1127.22 43.8291H1140.12C1144.29 43.8291 1147.17 44.913 1149.01 46.7516C1149.82 47.5886 1150.46 48.5765 1150.87 49.6741C1151.29 50.7718 1151.48 51.938 1151.41 53.1043V53.1729C1151.48 54.9977 1150.97 56.7814 1149.97 58.2907C1148.97 59.8 1147.51 60.9525 1145.81 61.5974L1152.31 71.1195H1143.57L1138.07 62.8597H1134.72V71.1195H1127.16L1127.22 43.8428V43.8291ZM1139.8 56.9186C1142.3 56.9186 1143.86 55.67 1143.86 53.6805V53.5982C1143.86 51.4304 1142.26 50.319 1139.77 50.319H1134.78V56.9049H1139.8V56.9186Z" fill="#0921FF"/>
<path d="M1157.84 59.1551V43.8291H1165.49V58.9904C1165.49 62.9283 1167.48 64.7943 1170.48 64.7943C1173.49 64.7943 1175.48 62.9969 1175.48 59.1825V43.8291H1183.12V58.9493C1183.12 67.6894 1178.12 71.6135 1170.33 71.6135C1162.54 71.6135 1157.84 67.6756 1157.84 59.1551Z" fill="#0921FF"/>
<path d="M2240.75 43.8291H2248.31V64.4787H2261.52V71.1195H2240.74V43.8428L2240.75 43.8291Z" fill="#0921FF"/>
<path d="M2267.67 43.8291H2289.61V50.2229H2275.16V54.394H2288.26V60.3488H2275.16V64.6845H2289.83V71.1058H2267.67V43.8291Z" fill="#0921FF"/>
<path d="M2303.34 50.4699H2295.14V43.8291H2319.04V50.4699H2310.85V71.1195H2303.36V50.4699H2303.34Z" fill="#0921FF"/>
<path d="M2325.02 59.1551V43.8291H2332.62V58.9904C2332.62 62.9283 2334.61 64.7943 2337.62 64.7943C2340.62 64.7943 2342.69 62.9969 2342.69 59.1825V43.8291H2350.34V58.9493C2350.34 67.6894 2345.34 71.6135 2337.55 71.6135C2329.75 71.6135 2325.04 67.6756 2325.04 59.1551H2325.02Z" fill="#0921FF"/>
<path d="M2356.47 63.5039H2364.14V71.1052H2356.47V63.5039V63.5039Z" fill="#0921FF"/>
<path d="M2371.15 43.8291H2384.05C2388.22 43.8291 2391.1 44.913 2392.94 46.7516C2393.75 47.5886 2394.39 48.5765 2394.8 49.6741C2395.22 50.7718 2395.41 51.938 2395.34 53.1043V53.1729C2395.41 54.9977 2394.9 56.7814 2393.9 58.2907C2392.9 59.8 2391.44 60.9525 2389.74 61.5974L2396.25 71.1195H2387.51L2382 62.8597H2378.66V71.1195H2371.1L2371.15 43.8428V43.8291ZM2383.73 56.9186C2386.23 56.9186 2387.79 55.67 2387.79 53.6805V53.5982C2387.79 51.4304 2386.19 50.319 2383.7 50.319H2378.71V56.9049H2383.73V56.9186Z" fill="#0921FF"/>
<path d="M2401.78 59.1551V43.8291H2409.42V58.9904C2409.42 62.9283 2411.41 64.7943 2414.41 64.7943C2417.42 64.7943 2419.41 62.9969 2419.41 59.1825V43.8291H2427.05V58.9493C2427.05 67.6894 2422.05 71.6135 2414.26 71.6135C2406.47 71.6135 2401.78 67.6756 2401.78 59.1551V59.1551Z" fill="#0921FF"/>
</svg>
