<svg width="175" height="26" viewBox="0 0 175 26" fill="none" xmlns="http://www.w3.org/2000/svg">
<path d="M0.012852 0H7.08736V19.3235H19.4518V25.5378H0V0.0128373L0.012852 0Z" fill="white"/>
<path d="M25.1907 0H45.721V5.98321H32.201V9.88642H44.4628V15.4588H32.201V19.516H45.9264V25.5249H25.1907V0V0Z" fill="white"/>
<path d="M58.5863 6.21432H50.9082V0H73.2747V6.21432H65.6095V25.5378H58.5991V6.21432H58.5863Z" fill="white"/>
<path d="M78.8665 14.3417V0H85.9795V14.1877C85.9795 17.8726 87.8413 19.6188 90.6531 19.6188C93.465 19.6188 95.4038 17.9368 95.4038 14.3674V0H102.555V14.1491C102.555 22.3279 97.8818 26 90.5889 26C83.2961 26 78.8793 22.3151 78.8793 14.3417H78.8665Z" fill="white"/>
<path d="M108.297 18.4121H115.475V25.5252H108.297V18.4121V18.4121Z" fill="white"/>
<path d="M122.041 0H134.11C138.013 0 140.709 1.01432 142.43 2.73482C143.187 3.51803 143.791 4.44247 144.176 5.46963C144.561 6.49679 144.741 7.58814 144.677 8.6795V8.7437C144.741 10.4514 144.266 12.1205 143.329 13.5328C142.391 14.9452 141.03 16.0237 139.438 16.6272L145.524 25.5378H137.345L132.197 17.8084H129.064V25.5378H121.989L122.041 0.0128373V0ZM133.814 12.2489C136.151 12.2489 137.615 11.0805 137.615 9.21876V9.14173C137.615 7.11308 136.113 6.07309 133.789 6.07309H129.115V12.236H133.814V12.2489Z" fill="white"/>
<path d="M150.7 14.3417V0H157.851V14.1877C157.851 17.8726 159.713 19.6188 162.525 19.6188C165.337 19.6188 167.198 17.9368 167.198 14.3674V0H174.35V14.1491C174.35 22.3279 169.676 26 162.384 26C155.091 26 150.7 22.3151 150.7 14.3417Z" fill="white"/>
</svg>
