<svg width="462" height="131" viewBox="0 0 462 131" fill="none" xmlns="http://www.w3.org/2000/svg">
<path d="M60.4408 0.99953H66.0808L56.3208 14.6795L66.4808 28.9995H60.6808L53.2808 18.3195L45.9208 28.9995H40.2808L50.4008 14.7595L40.6808 0.99953H46.4808L53.4008 11.1195L60.4408 0.99953Z" fill="black"/>
<path d="M82.1092 29.4795C73.5092 29.4795 67.5092 22.9595 67.5092 15.0795V14.9995C67.5092 7.15953 73.5892 0.519531 82.1892 0.519531C90.7892 0.519531 96.7892 7.03953 96.7892 14.9195V14.9995C96.7892 22.8395 90.7092 29.4795 82.1092 29.4795ZM82.1892 24.9195C87.7492 24.9195 91.6292 20.5195 91.6292 15.0795V14.9995C91.6292 9.55953 87.7092 5.07953 82.1092 5.07953C76.5492 5.07953 72.6692 9.47953 72.6692 14.9195V14.9995C72.6692 20.4395 76.5892 24.9195 82.1892 24.9195Z" fill="black"/>
<path d="M107.328 28.9995V5.55953H98.4083V0.99953H121.168V5.55953H112.248V28.9995H107.328Z" fill="black"/>
<path d="M149.87 28.9995H144.95V8.75953L129.75 28.9995H125.47V0.99953H130.39V20.7195L145.15 0.99953H149.87V28.9995Z" fill="black"/>
<path d="M163.111 28.9995V5.55953H154.191V0.99953H176.951V5.55953H168.031V28.9995H163.111Z" fill="black"/>
<path d="M181.252 28.9995V0.99953H202.012V5.39953H186.172V12.6795H200.212V17.1195H186.172V24.5995H202.212V28.9995H181.252Z" fill="black"/>
<path d="M226.961 28.9995H221.481L227.081 19.3595L215.881 0.99953H221.481L229.801 14.9595L237.401 0.99953H242.881L226.961 28.9995Z" fill="black"/>
<path d="M247.206 8.35953L244.206 4.99953C247.086 2.43953 250.526 0.519531 255.566 0.519531C261.926 0.519531 265.846 3.47953 265.846 8.03953V8.07953C265.846 11.5595 263.966 13.5595 260.726 14.6395C264.206 15.4795 266.566 17.4395 266.566 21.2395V21.2795C266.566 25.9595 262.326 29.4795 255.166 29.4795C250.166 29.4795 246.486 27.7195 243.726 25.3195L246.646 21.7595C249.046 23.6795 251.766 25.0795 255.286 25.0795C258.966 25.0795 261.566 23.5195 261.566 20.9195V20.8795C261.566 18.3195 259.166 16.9195 255.166 16.9595H250.126V12.7995H255.246C258.646 12.7995 260.846 11.3195 260.846 8.75953V8.71953C260.846 6.35953 258.806 4.91953 255.446 4.91953C252.206 4.91953 249.566 6.39953 247.206 8.35953Z" fill="black"/>
<path d="M271.529 28.9995V0.99953H276.449V12.6395H289.809V0.99953H294.729V28.9995H289.809V17.1995H276.449V28.9995H271.529Z" fill="black"/>
<path d="M298.72 28.9995L311.04 0.79953H315.6L327.92 28.9995H322.72L319.88 22.2395H306.64L303.76 28.9995H298.72ZM308.44 17.8795H318.08L313.24 6.67953L308.44 17.8795Z" fill="black"/>
<path d="M335.206 28.9995V5.55953H326.286V0.99953H349.046V5.55953H340.126V28.9995H335.206Z" fill="black"/>
<path d="M353.348 28.9995V0.99953H358.268V10.3195H364.188C370.708 10.3195 375.028 13.5595 375.028 19.4795V19.5595C375.028 25.4795 370.708 28.9995 363.868 28.9995H353.348ZM358.268 24.5195H363.988C367.668 24.5195 370.028 22.7995 370.028 19.6395V19.5995C370.028 16.4395 367.788 14.7595 364.068 14.7595H358.268V24.5195Z" fill="black"/>
<path d="M403.975 29.4795C395.375 29.4795 389.375 22.9595 389.375 15.0795V14.9995C389.375 7.15953 395.455 0.519531 404.055 0.519531C412.655 0.519531 418.655 7.03953 418.655 14.9195V14.9995C418.655 22.8395 412.575 29.4795 403.975 29.4795ZM404.055 24.9195C409.615 24.9195 413.495 20.5195 413.495 15.0795V14.9995C413.495 9.55953 409.575 5.07953 403.975 5.07953C398.415 5.07953 394.535 9.47953 394.535 14.9195V14.9995C394.535 20.4395 398.455 24.9195 404.055 24.9195Z" fill="black"/>
<path d="M0.480316 76.9995V48.9995H6.64032L6.56032 60.2395H8.52032L18.3203 48.9995H25.9603L13.4403 62.5595L26.7203 76.9995H18.8803L8.68032 65.5995H6.56032L6.64032 76.9995H0.480316Z" fill="#FE0E93"/>
<path d="M29.2897 76.9995V48.9995H40.7297C47.4097 48.9995 51.4497 52.9195 51.4497 58.6795V58.7595C51.4497 65.2795 46.4097 68.5995 40.1297 68.5995H35.4497V76.9995H29.2897ZM35.4497 63.1195H40.3297C43.4097 63.1195 45.2097 61.2795 45.2097 58.8795V58.7995C45.2097 56.0395 43.2897 54.5595 40.2097 54.5595H35.4497V63.1195Z" fill="#FE0E93"/>
<path d="M64.2225 76.9995H57.3825L62.8625 67.3995L52.1025 48.9995H59.0625L66.3025 61.7995L72.9425 48.9995H79.7825L64.2225 76.9995Z" fill="#FE0E93"/>
<path d="M89.2878 76.9995V54.6795H80.7678V48.9995H103.968V54.6795H95.4478V76.9995H89.2878Z" fill="#FE0E93"/>
<path d="M107.905 76.9995V48.9995H114.065V57.7995H119.025C125.745 57.7995 130.065 60.9995 130.065 67.2395V67.2795C130.065 73.2395 126.105 76.9995 118.785 76.9995H107.905ZM134.145 76.9995V48.9995H140.305V76.9995H134.145ZM114.065 71.4395H118.905C121.945 71.4395 123.825 70.0795 123.825 67.3595V67.3195C123.825 64.7595 122.145 63.2795 118.945 63.2795H114.065V71.4395Z" fill="#FE0E93"/>
<path d="M163.487 48.9995H170.487L161.127 62.6795L170.887 76.9995H163.687L157.407 67.3995L151.087 76.9995H144.087L153.847 62.7595L144.487 48.9995H151.687L157.527 58.0795L163.487 48.9995Z" fill="#FE0E93"/>
<path d="M199.016 77.4795C190.776 77.4795 184.656 71.1195 184.656 63.0795V62.9995C184.656 55.0395 190.656 48.5195 199.256 48.5195C204.496 48.5195 207.736 50.2795 210.296 52.8395L206.376 57.3595C204.176 55.3995 202.056 54.1995 199.216 54.1995C194.496 54.1995 191.096 58.1195 191.096 62.9195V62.9995C191.096 67.7995 194.416 71.7995 199.216 71.7995C202.416 71.7995 204.376 70.5595 206.576 68.5195L210.496 72.4795C207.616 75.5595 204.456 77.4795 199.016 77.4795Z" fill="#FE0E93"/>
<path d="M214.627 76.9995V48.9995H220.787L220.707 60.2395H222.667L232.467 48.9995H240.107L227.587 62.5595L240.867 76.9995H233.027L222.827 65.5995H220.707L220.787 76.9995H214.627Z" fill="#FE0E93"/>
<path d="M268.317 76.9995H262.157V58.7195L248.877 76.9995H243.437V48.9995H249.597V66.7195L262.437 48.9995H268.317V76.9995Z" fill="#FE0E93"/>
<path d="M272.078 71.3995H274.878L284.478 48.7995H290.958L300.478 71.3995H303.358V82.6795H297.598V76.9995H277.838V82.6795H272.078V71.3995ZM287.638 55.5995L281.198 71.6395H294.078L287.638 55.5995Z" fill="#FE0E93"/>
<path d="M307.11 76.9995V48.9995H313.27L313.19 60.2395H315.15L324.95 48.9995H332.59L320.07 62.5595L333.35 76.9995H325.51L315.31 65.5995H313.19L313.27 76.9995H307.11Z" fill="#FE0E93"/>
<path d="M332.738 76.9995L344.738 48.7995H350.418L362.418 76.9995H355.978L353.418 70.7195H341.578L339.018 76.9995H332.738ZM343.778 65.2795H351.218L347.498 56.1995L343.778 65.2795Z" fill="#FE0E93"/>
<path d="M382.438 48.9995H389.438L380.078 62.6795L389.838 76.9995H382.638L376.358 67.3995L370.038 76.9995H363.038L372.798 62.7595L363.438 48.9995H370.638L376.478 58.0795L382.438 48.9995Z" fill="#FE0E93"/>
<path d="M404.848 76.9995V48.9995H411.007V60.0795H422.367V48.9995H428.527V76.9995H422.367V65.7595H411.007V76.9995H404.848Z" fill="#FE0E93"/>
<path d="M432.038 76.9995L444.038 48.7995H449.718L461.718 76.9995H455.278L452.718 70.7195H440.878L438.318 76.9995H432.038ZM443.078 65.2795H450.518L446.798 56.1995L443.078 65.2795Z" fill="#FE0E93"/>
<path d="M40.8002 125V115.96C39.0002 116.32 36.8802 116.6 35.0002 116.6C28.6002 116.6 24.4002 113.6 24.4002 106.88V96.9995H30.5602V106.2C30.5602 109.56 32.2402 111 35.6402 111C37.5202 111 39.2402 110.8 40.8002 110.36V96.9995H46.9602V125H40.8002Z" fill="#FE0E93"/>
<path d="M52.8748 125V96.9995H73.9949V102.48H58.9948V108.16H72.1948V113.64H58.9948V119.52H74.1948V125H52.8748Z" fill="#FE0E93"/>
<path d="M78.8717 125V96.9995H90.3117C96.9917 96.9995 101.032 100.92 101.032 106.68V106.76C101.032 113.28 95.9917 116.6 89.7117 116.6H85.0317V125H78.8717ZM85.0317 111.12H89.9117C92.9917 111.12 94.7917 109.28 94.7917 106.88V106.8C94.7917 104.04 92.8717 102.56 89.7917 102.56H85.0317V111.12Z" fill="#FE0E93"/>
<path d="M104.79 125V96.9995H110.95V108.08H122.31V96.9995H128.47V125H122.31V113.76H110.95V125H104.79Z" fill="#FE0E93"/>
<path d="M143.981 125H137.141L142.621 115.4L131.861 96.9995H138.821L146.061 109.8L152.701 96.9995H159.541L143.981 125Z" fill="#FE0E93"/>
<path d="M162.526 125V96.9995H168.686V108.08H173.366C174.646 101.6 180.166 96.5195 187.486 96.5195C195.846 96.5195 201.806 103.08 201.806 110.92V111C201.806 118.84 195.726 125.48 187.406 125.48C180.006 125.48 174.486 120.36 173.326 113.76H168.686V125H162.526ZM187.486 119.8C192.246 119.8 195.366 115.92 195.366 111.08V111C195.366 106.2 192.166 102.2 187.406 102.2C182.646 102.2 179.526 106.08 179.526 110.92V111C179.526 115.8 182.726 119.8 187.486 119.8Z" fill="#FE0E93"/>
<path d="M217.684 125V96.9995H241.164V125H235.004V102.6H223.844V125H217.684Z" fill="#FE0E93"/>
<path d="M269.28 96.9995V125H263.12V116.04H258.64L252.36 125H245.08L252.16 115.08C248.56 113.8 245.92 111.08 245.92 106.68V106.64C245.92 100.08 250.48 96.9995 257.64 96.9995H269.28ZM263.12 102.56H257C253.96 102.56 252.16 103.88 252.16 106.6V106.64C252.16 109.04 253.84 110.64 256.88 110.6H263.12V102.56Z" fill="#FE0E93"/>
<path d="M281.706 125V102.68H273.186V96.9995H296.386V102.68H287.866V125H281.706Z" fill="#FE0E93"/>
<path d="M300.323 125V96.9995H306.483V108.08H317.843V96.9995H324.003V125H317.843V113.76H306.483V125H300.323Z" fill="#FE0E93"/>
<path d="M354.794 125H348.634V106.72L335.354 125H329.914V96.9995H336.074V114.72L348.914 96.9995H354.794V125Z" fill="#FE0E93"/>
<path d="M382.075 130.68V125H360.715V96.9995H366.875V119.4H378.035V96.9995H384.195V119.4H387.835V130.68H382.075Z" fill="#FE0E93"/>
<path d="M400.297 125H393.457L398.937 115.4L388.177 96.9995H395.137L402.377 109.8L409.017 96.9995H415.857L400.297 125Z" fill="#FE0E93"/>
<path d="M423.362 115.48L422.442 109L422.642 108.8C427.722 108.6 429.642 107.28 429.642 105.16V105.08C429.642 103.28 428.322 102.24 425.962 102.24C423.722 102.24 421.842 103.12 419.962 105L416.282 100.96C418.642 98.3995 421.722 96.6395 426.082 96.6395C431.842 96.6395 435.762 99.5995 435.762 104.92V105C435.762 110.08 432.242 112.2 427.882 113.04L427.442 115.48H423.362ZM422.042 125V118.6H428.522V125H422.042Z" fill="#FE0E93"/>
</svg>
