<svg width="280" height="230" viewBox="0 0 280 230" fill="none" xmlns="http://www.w3.org/2000/svg">
<path d="M44.9856 102V58.8596C44.4395 59.2692 41.9822 59.6788 38.5692 59.6788H38.2962C30.5146 59.6788 24.0982 55.8562 24.0982 45.3443V0.429688H41.2996V41.5218C41.2996 43.5696 42.1187 43.9791 43.3474 43.9791H43.4839C44.1665 43.9791 44.576 43.8426 44.9856 43.8426V0.429688H62.1869V102H44.9856Z" fill="black"/>
<path d="M64.64 0.429688H93.855V15.9928H81.5683V40.7027H91.9437V56.8119H81.5683V86.1634H94.2645V102H64.64V0.429688Z" fill="black"/>
<path d="M121.762 59.9518H113.571V102H96.3699V0.429688H121.489C128.725 0.429688 133.913 4.25221 133.913 13.672V46.4365C133.913 55.5832 128.452 59.9518 121.762 59.9518ZM113.571 13.5355V46.1634H114.8C116.165 46.1634 116.848 45.3443 116.848 43.5696V16.1293C116.848 14.4911 116.575 13.5355 114.8 13.5355H113.571Z" fill="black"/>
<path d="M156.853 102V57.7675H153.167V102H135.829V0.429688H153.167V39.8836H156.853V0.429688H174.054V102H156.853Z" fill="black"/>
<path d="M196.014 68.8255L193.966 30.1907L191.918 68.8255H196.014ZM197.788 102L196.833 83.706H190.962L190.007 102H175.126L183.59 0.429688H205.433L214.58 102H197.788Z" fill="black"/>
<path d="M236.044 58.4501H235.635L231.403 102H214.065L219.526 53.5354C216.932 51.3511 215.567 47.9382 215.567 42.4774V13.1259C215.567 3.84265 221.027 0.429688 227.034 0.429688H253.246V102H236.044V58.4501ZM236.044 44.2522V13.5355H234.952C233.178 13.5355 232.768 14.0815 232.768 15.8563V41.6583C232.768 43.7061 233.451 44.2522 235.089 44.2522H236.044Z" fill="black"/>
<path d="M0.510376 218V116.43H38.7356V218H21.3977V132.129H17.7117V218H0.510376Z" fill="black"/>
<path d="M62.0632 174.45H61.6536L57.4216 218H40.0837L45.5445 169.535C42.9506 167.351 41.5854 163.938 41.5854 158.477V129.126C41.5854 119.843 47.0462 116.43 53.053 116.43H79.2645V218H62.0632V174.45ZM62.0632 160.252V129.535H60.9711C59.1963 129.535 58.7868 130.082 58.7868 131.856V157.658C58.7868 159.706 59.4693 160.252 61.1076 160.252H62.0632Z" fill="black"/>
<path d="M89.6133 218V131.993H81.8317V116.43H114.46V131.993H106.678V218H89.6133Z" fill="black"/>
<path d="M137.255 218V173.768H133.569V218H116.231V116.43H133.569V155.884H137.255V116.43H154.456V218H137.255Z" fill="black"/>
<path d="M179.965 218L180.238 156.839L173.958 218H156.893V116.43H172.32L172.047 176.634L178.19 116.43H195.392V218H179.965Z" fill="black"/>
<path d="M224.58 229.877V218H197.822V116.43H215.024V202.3H218.71V116.43H236.048V202.163H239.597V229.877H224.58Z" fill="black"/>
<path d="M260.94 184.826L258.892 146.191L256.844 184.826H260.94ZM262.715 218L261.759 199.706H255.889L254.933 218H240.053L248.517 116.43H270.36L279.506 218H262.715Z" fill="black"/>
</svg>
