<svg width="186" height="117" viewBox="0 0 186 117" fill="none" xmlns="http://www.w3.org/2000/svg">
<path d="M0.217712 61.1536H19.5355V78.6317H0.217712V61.1536Z" fill="#FE0E93"/>
<path d="M65.7687 17.9185V44.1355C65.7687 50.7281 62.5491 53.6411 59.6361 55.4809C63.469 57.7807 66.5353 60.847 66.5353 66.9796V98.2561C66.5353 111.135 58.1029 116.961 46.2976 116.961H43.3846C30.506 116.961 22.9935 110.981 22.9935 98.1028V66.9796C22.9935 60.6937 25.7532 57.7807 29.5861 55.4809C26.5198 53.6411 23.7601 50.7281 23.7601 44.1355V17.9185C23.7601 7.95293 29.4328 0.900384 43.3846 0.900384H46.2976C60.2494 0.900384 65.7687 8.10625 65.7687 17.9185ZM46.6042 47.2019V18.9917C46.6042 17.3052 45.991 16.3853 44.7644 16.3853C43.3846 16.3853 42.7713 17.3052 42.7713 18.9917V47.2019C42.7713 48.8883 43.5379 49.6549 44.9177 49.6549C45.991 49.6549 46.6042 48.8883 46.6042 47.2019ZM46.6042 97.7962V65.5998C46.6042 63.9133 45.991 62.9934 44.7644 62.9934C43.3846 62.9934 42.7713 63.9133 42.7713 65.5998V97.7962C42.7713 99.4827 43.5379 100.249 44.9177 100.249C45.991 100.249 46.6042 99.4827 46.6042 97.7962Z" fill="#FE0E93"/>
<path d="M114.026 23.2845V94.8832C114.026 109.448 106.36 116.961 93.6351 116.961H90.7221C77.3836 116.961 70.1778 108.835 70.1778 94.8832V23.2845C70.1778 9.17946 76.4637 0.74707 90.7221 0.74707H93.6351C107.894 0.74707 114.026 9.63941 114.026 23.2845ZM94.0951 96.723V20.8315C94.0951 18.9917 93.7885 17.7652 92.102 17.7652C90.4155 17.7652 90.2622 18.8384 90.2622 20.8315V96.723C90.2622 98.7161 90.8755 99.636 92.102 99.636C93.4818 99.636 94.0951 98.7161 94.0951 96.723Z" fill="#FE0E93"/>
<path d="M117.654 39.2294V13.7789C117.654 5.19324 122.254 0.900384 130.073 0.900384H132.066C140.498 0.900384 144.638 5.19324 144.638 13.7789V39.2294C144.638 47.8151 139.732 51.9547 131.913 51.9547H130.073C121.794 51.9547 117.654 47.6618 117.654 39.2294ZM157.823 1.82029H168.709L135.899 115.887H124.86L157.823 1.82029ZM132.373 41.2225V11.6325C132.373 10.5593 131.913 9.94604 131.146 9.94604C130.38 9.94604 129.92 10.5593 129.92 11.6325V41.2225C129.92 42.2957 130.38 42.7557 131.146 42.7557C131.913 42.7557 132.373 42.2957 132.373 41.2225ZM148.931 103.776V78.325C148.931 69.7393 153.53 65.5998 161.349 65.5998H163.496C171.928 65.5998 176.068 69.8926 176.068 78.325V103.776C176.068 112.361 171.162 116.654 163.342 116.654H161.503C153.07 116.654 148.931 112.361 148.931 103.776ZM162.576 107.455C163.342 107.455 163.649 106.995 163.649 105.922V76.1786C163.649 75.1054 163.342 74.6454 162.576 74.6454C161.809 74.6454 161.349 75.1054 161.349 76.1786V105.922C161.349 106.995 161.809 107.455 162.576 107.455Z" fill="#FE0E93"/>
<path d="M4.98404 76.9005H2.52728V72.7285H2.9293C2.9963 72.0332 3.0633 71.2481 3.13031 69.9023C3.19731 68.6013 3.17497 66.6275 3.17497 62.9041H8.93719V72.7285H9.47322V76.9005H7.01645V74.9715H4.98404V76.9005ZM5.52006 70.1266C5.45306 71.1808 5.43073 71.9883 5.31906 72.7285H6.19009V65.1246H5.6094C5.6094 67.1882 5.58707 68.8705 5.52006 70.1266Z" fill="white"/>
<path d="M13.0329 75.151H12.5862C10.7101 75.151 9.77211 74.1641 9.77211 72.2126V65.6405C9.77211 63.6667 10.7995 62.7246 12.6086 62.7246H13.0552C14.9313 62.7246 15.8693 63.6891 15.8693 65.6405V72.2126C15.8693 74.2089 14.7973 75.151 13.0329 75.151ZM12.8096 73.065C13.0106 73.065 13.0999 72.9304 13.0999 72.6612V65.1695C13.0999 64.9228 13.0552 64.7433 12.8096 64.7433C12.5639 64.7433 12.5415 64.9228 12.5415 65.1695V72.6612C12.5415 72.9304 12.6309 73.065 12.8096 73.065Z" fill="white"/>
<path d="M181.818 3.83303L183.54 2.32034L185.158 4.98058L182.862 5.81517L185.158 6.64976L183.54 9.36217L181.818 7.74516L182.184 10.1968H178.896L179.366 7.74516L177.592 9.31001L175.974 6.64976L178.322 5.81517L175.974 4.98058L177.487 2.32034L179.314 3.83303L178.896 1.43359H182.184L181.818 3.83303Z" fill="#FE0E93"/>
</svg>
