<svg width="517" height="126" viewBox="0 0 517 126" fill="none" xmlns="http://www.w3.org/2000/svg">
<path d="M37.3772 28.9998V0.999804H43.5372V12.0798H54.8972V0.999804H61.0572V28.9998H54.8972V17.7598H43.5372V28.9998H37.3772Z" fill="#FE0E93"/>
<path d="M64.5678 28.9998L76.5678 0.799805H82.2478L94.2478 28.9998H87.8078L85.2478 22.7198H73.4078L70.8478 28.9998H64.5678ZM75.6078 17.2798H83.0478L79.3278 8.1998L75.6078 17.2798Z" fill="#FE0E93"/>
<path d="M94.8281 0.999804H102.148L111.228 12.3198H112.508L112.468 0.999804H118.548L118.468 12.3198H119.828L128.948 0.999804H136.188L124.868 14.6798L137.188 28.9998H129.868L120.108 17.5198H118.468L118.548 28.9998H112.468L112.508 17.5198H110.748L101.068 28.9998H93.8281L106.188 14.6798L94.8281 0.999804Z" fill="#FE0E93"/>
<path d="M139.938 28.9998V0.999804H146.578L153.938 12.8398L161.298 0.999804H167.938V28.9998H161.818V10.7198L153.938 22.6798H153.778L145.978 10.8398V28.9998H139.938Z" fill="#FE0E93"/>
<path d="M198.745 28.9998H192.585V10.7198L179.305 28.9998H173.865V0.999804H180.025V18.7198L192.865 0.999804H198.745V28.9998Z" fill="#FE0E93"/>
<path d="M211.186 28.9998V6.67981H202.666V0.999804H225.866V6.67981H217.346V28.9998H211.186Z" fill="#FE0E93"/>
<path d="M229.804 28.9998V0.999804H250.924V6.47981H235.924V12.1598H249.124V17.6398H235.924V23.5198H251.124V28.9998H229.804Z" fill="#FE0E93"/>
<path d="M266.993 28.9998V0.999804H273.153V12.0798H284.513V0.999804H290.673V28.9998H284.513V17.7598H273.153V28.9998H266.993Z" fill="#FE0E93"/>
<path d="M294.183 28.9998L306.183 0.799805H311.863L323.863 28.9998H317.423L314.863 22.7198H303.023L300.463 28.9998H294.183ZM305.223 17.2798H312.663L308.943 8.1998L305.223 17.2798Z" fill="#FE0E93"/>
<path d="M353.337 0.799805L365.057 28.9998H358.257L350.497 9.43981L342.817 28.9998H336.177L347.897 0.799805H353.337Z" fill="#FE0E93"/>
<path d="M365.377 28.9998L377.377 0.799805H383.057L395.057 28.9998H388.617L386.057 22.7198H374.217L371.657 28.9998H365.377ZM376.417 17.2798H383.857L380.137 8.1998L376.417 17.2798Z" fill="#FE0E93"/>
<path d="M398.579 28.9998V0.999804H422.059V28.9998H415.899V6.59981H404.739V28.9998H398.579Z" fill="#FE0E93"/>
<path d="M427.974 28.9998V0.999804H434.134L434.054 12.2398H436.014L445.814 0.999804H453.454L440.934 14.5598L454.214 28.9998H446.374L436.174 17.5998H434.054L434.134 28.9998H427.974Z" fill="#FE0E93"/>
<path d="M465.797 28.9998H458.957L464.437 19.3998L453.677 0.999804H460.637L467.877 13.7998L474.517 0.999804H481.357L465.797 28.9998Z" fill="#FE0E93"/>
<path d="M0.852173 76.9998V48.9998H7.01217L6.93217 60.2398H8.89217L18.6922 48.9998H26.3322L13.8122 62.5598L27.0922 76.9998H19.2522L9.05217 65.5998H6.93217L7.01217 76.9998H0.852173Z" fill="#FE0E93"/>
<path d="M41.0741 77.4798C32.434 77.4798 26.234 71.0398 26.234 63.0798V62.9998C26.234 55.0398 32.514 48.5198 41.154 48.5198C49.794 48.5198 55.994 54.9598 55.994 62.9198V62.9998C55.994 70.9598 49.7141 77.4798 41.0741 77.4798ZM41.154 71.7998C46.114 71.7998 49.5541 67.8798 49.5541 63.0798V62.9998C49.5541 58.1998 46.0341 54.1998 41.0741 54.1998C36.1141 54.1998 32.674 58.1198 32.674 62.9198V62.9998C32.674 67.7998 36.194 71.7998 41.154 71.7998Z" fill="#FE0E93"/>
<path d="M65.9675 76.9998V54.6798H57.4475V48.9998H80.6475V54.6798H72.1275V76.9998H65.9675Z" fill="#FE0E93"/>
<path d="M109.465 76.9998H103.305V58.7198L90.025 76.9998H84.585V48.9998H90.745V66.7198L103.585 48.9998H109.465V76.9998Z" fill="#FE0E93"/>
<path d="M115.387 76.9998V48.9998H121.547L121.467 60.2398H123.427L133.227 48.9998H140.867L128.347 62.5598L141.627 76.9998H133.787L123.587 65.5998H121.467L121.547 76.9998H115.387Z" fill="#FE0E93"/>
<path d="M141.015 76.9998L153.015 48.7998H158.695L170.695 76.9998H164.255L161.695 70.7198H149.855L147.295 76.9998H141.015ZM152.055 65.2798H159.495L155.775 56.1998L152.055 65.2798Z" fill="#FE0E93"/>
<path d="M210.048 76.9998H205.128V56.7598L189.928 76.9998H185.648V48.9998H190.568V68.7198L205.328 48.9998H210.048V76.9998Z" fill="black"/>
<path d="M241.002 77.4798C232.402 77.4798 226.402 70.9598 226.402 63.0798V62.9998C226.402 55.1598 232.482 48.5198 241.082 48.5198C249.682 48.5198 255.682 55.0398 255.682 62.9198V62.9998C255.682 70.8398 249.602 77.4798 241.002 77.4798ZM241.082 72.9198C246.642 72.9198 250.522 68.5198 250.522 63.0798V62.9998C250.522 57.5598 246.602 53.0798 241.002 53.0798C235.442 53.0798 231.562 57.4798 231.562 62.9198V62.9998C231.562 68.4398 235.482 72.9198 241.082 72.9198Z" fill="black"/>
<path d="M260.827 76.9998V48.9998H265.747V60.6398H279.107V48.9998H284.027V76.9998H279.107V65.1998H265.747V76.9998H260.827Z" fill="black"/>
<path d="M301.609 76.9998V48.9998H312.649C319.209 48.9998 323.289 52.7198 323.289 58.3598V58.4398C323.289 64.6798 318.289 67.9998 312.089 67.9998H306.529V76.9998H301.609ZM306.529 63.5598H312.249C315.969 63.5598 318.289 61.4798 318.289 58.5598V58.4798C318.289 55.1598 315.929 53.4798 312.249 53.4798H306.529V63.5598Z" fill="black"/>
<path d="M322.316 76.9998L334.636 48.7998H339.196L351.516 76.9998H346.316L343.476 70.2398H330.236L327.356 76.9998H322.316ZM332.036 65.8798H341.676L336.836 54.6798L332.036 65.8798Z" fill="black"/>
<path d="M366.759 77.4798C358.599 77.4798 352.519 71.1198 352.519 63.0798V62.9998C352.519 55.0398 358.479 48.5198 366.919 48.5198C372.119 48.5198 375.239 50.3198 377.919 52.8798L374.759 56.5198C372.479 54.4398 370.119 53.0798 366.879 53.0798C361.599 53.0798 357.679 57.4398 357.679 62.9198V62.9998C357.679 68.4798 361.559 72.9198 366.919 72.9198C370.319 72.9198 372.559 71.5598 374.959 69.3198L378.119 72.5198C375.279 75.5998 371.959 77.4798 366.759 77.4798Z" fill="black"/>
<path d="M382.53 76.9998V48.9998H387.45L387.41 60.6398H390.49L401.01 48.9998H407.21L394.45 62.5198L407.89 76.9998H401.57L390.61 64.9998H387.41L387.45 76.9998H382.53Z" fill="black"/>
<path d="M411.066 76.9998V48.9998H422.106C428.666 48.9998 432.746 52.7198 432.746 58.3598V58.4398C432.746 64.6798 427.746 67.9998 421.546 67.9998H415.986V76.9998H411.066ZM415.986 63.5598H421.706C425.426 63.5598 427.746 61.4798 427.746 58.5598V58.4798C427.746 55.1598 425.386 53.4798 421.706 53.4798H415.986V63.5598Z" fill="black"/>
<path d="M450.344 77.4798C441.744 77.4798 435.744 70.9598 435.744 63.0798V62.9998C435.744 55.1598 441.824 48.5198 450.424 48.5198C459.024 48.5198 465.024 55.0398 465.024 62.9198V62.9998C465.024 70.8398 458.944 77.4798 450.344 77.4798ZM450.424 72.9198C455.984 72.9198 459.864 68.5198 459.864 63.0798V62.9998C459.864 57.5598 455.944 53.0798 450.344 53.0798C444.784 53.0798 440.904 57.4798 440.904 62.9198V62.9998C440.904 68.4398 444.824 72.9198 450.424 72.9198Z" fill="black"/>
<path d="M470.169 76.9998V48.9998H490.929V53.3998H475.089V60.6798H489.129V65.1198H475.089V72.5998H491.129V76.9998H470.169Z" fill="black"/>
<path d="M502.967 76.9998V53.5598H494.047V48.9998H516.807V53.5598H507.887V76.9998H502.967Z" fill="black"/>
<path d="M57.2367 125V96.9998H69.7967C73.0367 96.9998 75.4767 97.8398 77.1167 99.4798C78.3567 100.72 78.9967 102.28 78.9967 104.12V104.2C78.9967 107.6 77.0767 109.36 74.9967 110.44C78.3167 111.6 80.5567 113.4 80.5567 117.24V117.32C80.5567 122.32 76.4367 125 70.1967 125H57.2367ZM74.0767 105V104.92C74.0767 102.68 72.3567 101.36 69.1567 101.36H62.0767V108.8H68.7967C71.9967 108.8 74.0767 107.56 74.0767 105ZM75.6367 116.8V116.72C75.6367 114.32 73.7567 112.96 69.8767 112.96H62.0767V120.64H70.2367C73.5967 120.64 75.6367 119.36 75.6367 116.8Z" fill="black"/>
<path d="M82.7476 125L95.0676 96.7998H99.6276L111.948 125H106.748L103.908 118.24H90.6676L87.7876 125H82.7476ZM92.4676 113.88H102.108L97.2676 102.68L92.4676 113.88Z" fill="black"/>
<path d="M115.949 125V96.9998H121.189L129.709 110.24L138.229 96.9998H143.469V125H138.549V104.92L129.709 118.12H129.549L120.789 105V125H115.949Z" fill="black"/>
<path d="M161.068 125V96.9998H173.628C176.868 96.9998 179.308 97.8398 180.948 99.4798C182.188 100.72 182.828 102.28 182.828 104.12V104.2C182.828 107.6 180.908 109.36 178.828 110.44C182.148 111.6 184.388 113.4 184.388 117.24V117.32C184.388 122.32 180.268 125 174.028 125H161.068ZM177.908 105V104.92C177.908 102.68 176.188 101.36 172.988 101.36H165.908V108.8H172.628C175.828 108.8 177.908 107.56 177.908 105ZM179.468 116.8V116.72C179.468 114.32 177.588 112.96 173.708 112.96H165.908V120.64H174.068C177.428 120.64 179.468 119.36 179.468 116.8Z" fill="black"/>
<path d="M202.135 125.48C193.975 125.48 187.895 119.12 187.895 111.08V111C187.895 103.04 193.855 96.5198 202.295 96.5198C207.495 96.5198 210.615 98.3198 213.295 100.88L210.135 104.52C207.855 102.44 205.495 101.08 202.255 101.08C196.975 101.08 193.055 105.44 193.055 110.92V111C193.055 116.48 196.935 120.92 202.295 120.92C205.695 120.92 207.935 119.56 210.335 117.32L213.495 120.52C210.655 123.6 207.335 125.48 202.135 125.48Z" fill="black"/>
<path d="M217.905 125V96.9998H238.665V101.4H222.825V108.68H236.865V113.12H222.825V120.6H238.865V125H217.905Z" fill="black"/>
<path d="M268.095 125.48C259.935 125.48 253.855 119.12 253.855 111.08V111C253.855 103.04 259.815 96.5198 268.255 96.5198C273.455 96.5198 276.575 98.3198 279.255 100.88L276.095 104.52C273.815 102.44 271.455 101.08 268.215 101.08C262.935 101.08 259.015 105.44 259.015 110.92V111C259.015 116.48 262.895 120.92 268.255 120.92C271.655 120.92 273.895 119.56 276.295 117.32L279.455 120.52C276.615 123.6 273.295 125.48 268.095 125.48Z" fill="black"/>
<path d="M283.865 125V96.9998H304.625V101.4H288.785V108.68H302.825V113.12H288.785V120.6H304.825V125H283.865Z" fill="black"/>
<path d="M309.862 125V96.9998H314.782L314.742 108.64H317.822L328.342 96.9998H334.542L321.782 110.52L335.222 125H328.902L317.942 113H314.742L314.782 125H309.862Z" fill="black"/>
<path d="M338.398 125V96.9998H349.438C355.998 96.9998 360.078 100.72 360.078 106.36V106.44C360.078 112.68 355.078 116 348.878 116H343.318V125H338.398ZM343.318 111.56H349.038C352.758 111.56 355.078 109.48 355.078 106.56V106.48C355.078 103.16 352.718 101.48 349.038 101.48H343.318V111.56Z" fill="black"/>
<path d="M364.316 125V96.9998H385.076V101.4H369.236V108.68H383.276V113.12H369.236V120.6H385.276V125H364.316Z" fill="black"/>
<path d="M397.114 125V101.56H388.194V96.9998H410.954V101.56H402.034V125H397.114Z" fill="black"/>
<path d="M415.255 125V96.9998H420.175V106.32H426.095C432.615 106.32 436.935 109.56 436.935 115.48V115.56C436.935 121.48 432.615 125 425.775 125H415.255ZM441.535 125V96.9998H446.495V125H441.535ZM420.175 120.52H425.895C429.575 120.52 431.935 118.8 431.935 115.64V115.6C431.935 112.44 429.695 110.76 425.975 110.76H420.175V120.52Z" fill="black"/>
<path d="M454.013 116.12L452.493 98.3998V96.9998H458.173V98.3998L456.693 116.12H454.013ZM452.693 125V119.48H458.013V125H452.693Z" fill="black"/>
</svg>
